<?xml version="1.0" encoding="utf-8" standalone="no"?>
<!DOCTYPE svg PUBLIC "-//W3C//DTD SVG 1.1//EN"
  "http://www.w3.org/Graphics/SVG/1.1/DTD/svg11.dtd">
<svg xmlns:xlink="http://www.w3.org/1999/xlink" width="1080pt" height="864pt" viewBox="0 0 1080 864" xmlns="http://www.w3.org/2000/svg" version="1.1">
 <metadata>
  <rdf:RDF xmlns:dc="http://purl.org/dc/elements/1.1/" xmlns:cc="http://creativecommons.org/ns#" xmlns:rdf="http://www.w3.org/1999/02/22-rdf-syntax-ns#">
   <cc:Work>
    <dc:type rdf:resource="http://purl.org/dc/dcmitype/StillImage"/>
    <dc:date>2025-02-17T15:25:41.629750</dc:date>
    <dc:format>image/svg+xml</dc:format>
    <dc:creator>
     <cc:Agent>
      <dc:title>Matplotlib v3.10.0, https://matplotlib.org/</dc:title>
     </cc:Agent>
    </dc:creator>
   </cc:Work>
  </rdf:RDF>
 </metadata>
 <defs>
  <style type="text/css">*{stroke-linejoin: round; stroke-linecap: butt}</style>
 </defs>
 <g id="figure_1">
  <g id="patch_1">
   <path d="M 0 864 
L 1080 864 
L 1080 0 
L 0 0 
z
" style="fill: #ffffff"/>
  </g>
  <g id="axes_1">
   <g id="patch_2">
    <path d="M 135 768.96 
L 972 768.96 
L 972 103.68 
L 135 103.68 
L 135 768.96 
z
" style="fill: none"/>
   </g>
   <g id="line2d_1">
    <path d="M -1 392.905276 
L -0.804636 395.091839 
L 1.966887 443.312685 
L 4.738411 393.315853 
L 7.509934 441.964326 
L 10.281457 422.89523 
L 13.05298 674.100299 
L 15.824503 372.314897 
L 18.596026 354.174627 
L 21.36755 377.120498 
L 24.139073 417.956228 
L 26.910596 409.540985 
L 29.682119 395.066358 
L 32.453642 553.605992 
L 35.225166 448.988895 
L 37.996689 380.908614 
L 40.768212 384.187441 
L 43.539735 541.289323 
L 46.311258 502.162569 
L 49.082781 369.697517 
L 51.854305 526.734436 
L 54.625828 575.149831 
L 57.397351 376.72139 
L 60.168874 394.601597 
L 62.940397 383.627251 
L 65.711921 398.254855 
L 68.483444 404.013382 
L 71.254967 395.396353 
L 74.02649 444.637116 
L 76.798013 432.397804 
L 79.569536 474.719055 
L 82.34106 415.604739 
L 85.112583 538.283994 
L 87.884106 627.278997 
L 90.655629 515.807942 
L 93.427152 512.893914 
L 96.198675 528.806938 
L 98.970199 401.943081 
L 101.741722 421.372007 
L 104.513245 438.575468 
L 107.284768 442.455863 
L 110.056291 536.142222 
L 112.827815 603.631956 
L 115.599338 612.965265 
L 118.370861 508.552546 
L 121.142384 475.582241 
L 123.913907 425.693871 
L 126.68543 407.739374 
L 129.456954 528.688974 
L 132.228477 418.977285 
L 135 419.565151 
L 137.771523 583.406379 
L 140.543046 474.124896 
L 143.31457 614.463893 
L 146.086093 436.187049 
L 148.857616 433.067677 
L 151.629139 430.493134 
L 154.400662 435.075805 
L 157.172185 445.432776 
L 159.943709 429.261313 
L 162.715232 440.689335 
L 165.486755 437.105518 
L 168.258278 462.64254 
L 171.029801 433.327438 
L 173.801325 435.579698 
L 176.572848 438.009846 
L 179.344371 444.383309 
L 182.115894 434.781806 
L 184.887417 426.328761 
L 187.65894 434.012197 
L 190.430464 437.418125 
L 193.201987 446.220248 
L 195.97351 432.175258 
L 198.745033 436.72518 
L 201.516556 427.329104 
L 204.288079 478.897364 
L 207.059603 512.441593 
L 209.831126 452.86687 
L 212.602649 455.059585 
L 215.374172 500.680868 
L 218.145695 460.619526 
L 220.917219 449.899336 
L 223.688742 490.904386 
L 226.460265 437.428546 
L 229.231788 435.217223 
L 232.003311 435.232853 
L 234.774834 436.659681 
L 237.546358 444.283572 
L 240.317881 429.631358 
L 243.089404 437.86694 
L 245.860927 435.52983 
L 248.63245 445.570472 
L 251.403974 601.237636 
L 254.175497 360.020084 
L 256.94702 376.463558 
L 259.718543 445.617553 
L 262.490066 397.447123 
L 265.261589 397.560536 
L 268.033113 415.074658 
L 270.804636 453.071221 
L 273.576159 416.54446 
L 276.347682 579.067095 
L 279.119205 596.492707 
L 281.890728 517.298168 
L 284.662252 511.049747 
L 287.433775 494.047985 
L 290.205298 339.290451 
L 292.976821 349.782233 
L 295.748344 361.589322 
L 298.519868 351.511961 
L 301.291391 401.266791 
L 304.062914 622.822095 
L 306.834437 536.1908 
L 309.60596 602.221604 
L 312.377483 518.143664 
L 315.149007 547.461991 
L 317.92053 386.390415 
L 320.692053 382.256797 
L 323.463576 410.297755 
L 326.235099 457.847135 
L 329.006623 472.675677 
L 331.778146 383.299307 
L 334.549669 383.00514 
L 337.321192 400.145062 
L 340.092715 392.401702 
L 342.864238 346.950516 
L 348.407285 352.701089 
L 351.178808 419.391664 
L 353.950331 445.527773 
L 356.721854 516.780376 
L 359.493377 479.189936 
L 362.264901 624.1449 
L 365.036424 356.010987 
L 367.807947 339.825535 
L 370.57947 346.725957 
L 373.350993 395.620444 
L 376.122517 441.862918 
L 378.89404 619.708994 
L 381.665563 633.09174 
L 384.437086 555.762692 
L 387.208609 530.150815 
L 389.980132 260.99261 
L 392.751656 280.143691 
L 395.523179 318.159891 
L 398.294702 375.955553 
L 401.066225 521.315852 
L 403.837748 608.35004 
L 406.609272 290.462731 
L 409.380795 227.991284 
L 412.152318 303.429503 
L 414.923841 665.652172 
L 417.695364 475.888422 
L 420.466887 661.56485 
L 423.238411 337.003073 
L 426.009934 538.105599 
L 428.781457 353.788344 
L 431.55298 316.38671 
L 434.324503 477.983813 
L 437.096026 307.492752 
L 439.86755 306.875152 
L 442.639073 289.946477 
L 445.410596 547.106815 
L 448.182119 259.616948 
L 450.953642 448.17565 
L 453.725166 621.545422 
L 456.496689 501.979275 
L 459.268212 265.327438 
L 462.039735 308.474458 
L 464.811258 255.862951 
L 467.582781 304.670074 
L 470.354305 313.613438 
L 473.125828 305.823181 
L 478.668874 584.266163 
L 481.440397 281.350821 
L 484.211921 571.359785 
L 486.983444 294.023325 
L 489.754967 188.235764 
L 492.52649 233.620028 
L 495.298013 196.776857 
L 498.069536 212.262506 
L 500.84106 259.979254 
L 503.612583 428.450487 
L 506.384106 249.884235 
L 509.155629 267.51418 
L 511.927152 533.774987 
L 514.698675 434.990576 
L 517.470199 593.7447 
L 520.241722 235.155846 
L 523.013245 183.553077 
L 525.784768 267.612148 
L 528.556291 262.66508 
L 531.327815 222.669588 
L 534.099338 165.348464 
L 536.870861 237.610394 
L 539.642384 215.65953 
L 542.413907 317.530412 
L 545.18543 240.533067 
L 547.956954 237.54661 
L 550.728477 390.193858 
L 553.5 244.994535 
L 556.271523 183.568651 
L 559.043046 133.92 
L 561.81457 143.101265 
L 564.586093 203.925884 
L 567.357616 219.430681 
L 570.129139 225.208797 
L 572.900662 362.880714 
L 575.672185 355.091276 
L 578.443709 274.966776 
L 581.215232 186.840818 
L 583.986755 301.753579 
L 586.758278 168.013019 
L 589.529801 385.577264 
L 592.301325 245.530852 
L 595.072848 738.72 
L 597.844371 738.72 
L 600.615894 358.300036 
L 603.387417 315.900687 
L 606.15894 529.094673 
L 608.930464 489.240423 
L 611.701987 532.821398 
L 614.47351 419.30854 
L 617.245033 189.890438 
L 620.016556 175.852891 
L 622.788079 200.122685 
L 625.559603 714.332819 
L 628.331126 500.571929 
L 631.102649 577.745533 
L 633.874172 274.634919 
L 636.645695 216.465295 
L 639.417219 284.20918 
L 642.188742 203.987676 
L 644.960265 194.17641 
L 647.731788 465.310652 
L 650.503311 336.694075 
L 653.274834 293.903659 
L 656.046358 313.571842 
L 658.817881 227.476948 
L 661.589404 152.728706 
L 664.360927 175.302307 
L 667.13245 415.496926 
L 669.903974 336.830015 
L 672.675497 550.599754 
L 675.44702 440.806218 
L 678.218543 306.493352 
L 680.990066 279.452254 
L 683.761589 292.091238 
L 686.533113 242.928643 
L 689.304636 397.415636 
L 692.076159 503.609478 
L 694.847682 533.881067 
L 697.619205 435.127081 
L 700.390728 357.728841 
L 703.162252 423.710358 
L 705.933775 437.668779 
L 708.705298 473.685203 
L 711.476821 536.82117 
L 714.248344 420.228606 
L 717.019868 370.087663 
L 719.791391 355.057038 
L 722.562914 245.517485 
L 725.334437 214.61932 
L 728.10596 235.231648 
L 730.877483 239.571516 
L 733.649007 292.355405 
L 736.42053 464.20417 
L 739.192053 330.4711 
L 741.963576 387.90054 
L 744.735099 335.761703 
L 747.506623 359.822957 
L 750.278146 220.436031 
L 753.049669 242.756042 
L 755.821192 178.354516 
L 758.592715 407.232021 
L 761.364238 300.373825 
L 764.135762 416.194999 
L 766.907285 263.200437 
L 769.678808 346.911268 
L 772.450331 403.029885 
L 775.221854 396.516438 
L 777.993377 392.865661 
L 780.764901 350.469157 
L 783.536424 388.011347 
L 786.307947 466.426799 
L 789.07947 260.052969 
L 791.850993 239.981306 
L 794.622517 348.101484 
L 797.39404 465.947468 
L 800.165563 431.097143 
L 802.937086 403.600218 
L 805.708609 363.826638 
L 808.480132 294.903223 
L 811.251656 339.280088 
L 814.023179 435.177915 
L 816.794702 443.873055 
L 819.566225 480.387658 
L 822.337748 235.962322 
L 825.109272 308.0157 
L 827.880795 321.228953 
L 830.652318 370.932075 
L 833.423841 372.747977 
L 836.195364 318.535139 
L 838.966887 337.519742 
L 841.738411 353.52823 
L 844.509934 444.48525 
L 847.281457 245.289894 
L 850.05298 231.947442 
L 852.824503 243.257807 
L 855.596026 511.759574 
L 858.36755 442.443511 
L 861.139073 272.550322 
L 863.910596 338.109159 
L 866.682119 258.626682 
L 869.453642 397.566527 
L 872.225166 369.994731 
L 874.996689 486.426481 
L 877.768212 400.359657 
L 880.539735 339.890014 
L 883.311258 404.137783 
L 886.082781 287.606447 
L 888.854305 299.207498 
L 891.625828 288.677698 
L 894.397351 236.456106 
L 897.168874 255.764708 
L 899.940397 296.515364 
L 902.711921 264.583711 
L 905.483444 283.641221 
L 908.254967 280.306448 
L 911.02649 328.249806 
L 913.798013 291.800118 
L 916.569536 302.892519 
L 919.34106 300.050087 
L 922.112583 348.962168 
L 924.884106 340.889006 
L 927.655629 326.972732 
L 930.427152 333.510805 
L 933.198675 298.753154 
L 935.970199 291.570039 
L 938.741722 314.575181 
L 941.513245 589.453889 
L 944.284768 328.455052 
L 947.056291 357.91224 
L 949.827815 655.478513 
L 952.599338 420.646588 
L 955.370861 568.951279 
L 958.142384 301.889921 
L 960.913907 312.457559 
L 963.68543 449.821488 
L 966.456954 386.228396 
L 969.228477 571.420601 
L 972 396.141089 
L 972 396.141089 
" clip-path="url(#p778e2ae9c5)" style="fill: none; stroke: #4c72b0; stroke-width: 1.5; stroke-linecap: round"/>
   </g>
   <g id="line2d_2">
    <path d="M -1 379.815267 
L -0.804636 383.070309 
L 1.966887 460.633856 
L 4.738411 393.155451 
L 7.509934 444.452413 
L 10.281457 425.192454 
L 13.05298 653.065885 
L 15.824503 377.956417 
L 18.596026 347.113804 
L 21.36755 368.044149 
L 24.139073 418.186982 
L 26.910596 405.771884 
L 29.682119 392.224573 
L 32.453642 555.706144 
L 35.225166 425.94461 
L 37.996689 361.855111 
L 40.768212 369.641892 
L 43.539735 526.147032 
L 46.311258 480.801973 
L 49.082781 364.20539 
L 51.854305 545.788642 
L 54.625828 568.731964 
L 57.397351 379.385508 
L 60.168874 395.490374 
L 62.940397 380.912365 
L 65.711921 390.004501 
L 68.483444 394.945135 
L 71.254967 390.665854 
L 74.02649 444.578374 
L 76.798013 415.956861 
L 79.569536 458.082186 
L 82.34106 409.059786 
L 85.112583 501.351777 
L 87.884106 600.878898 
L 90.655629 493.531409 
L 93.427152 496.493673 
L 96.198675 506.265771 
L 98.970199 391.452936 
L 101.741722 405.471036 
L 104.513245 435.120149 
L 107.284768 428.870942 
L 110.056291 513.269911 
L 112.827815 581.856612 
L 115.599338 585.612929 
L 118.370861 497.587284 
L 121.142384 459.37121 
L 123.913907 417.54084 
L 126.68543 387.884249 
L 129.456954 527.942298 
L 132.228477 405.732716 
L 135 399.208783 
L 137.771523 561.432803 
L 140.543046 466.127173 
L 143.31457 604.077891 
L 146.086093 426.016869 
L 148.857616 424.760734 
L 151.629139 417.893409 
L 154.400662 421.907839 
L 157.172185 440.423158 
L 159.943709 429.268786 
L 162.715232 432.140047 
L 165.486755 430.563185 
L 168.258278 465.083361 
L 171.029801 424.71037 
L 173.801325 427.958967 
L 176.572848 430.014762 
L 179.344371 429.939541 
L 182.115894 422.37457 
L 184.887417 421.160439 
L 187.65894 434.591242 
L 190.430464 429.985489 
L 193.201987 434.626233 
L 195.97351 423.757988 
L 198.745033 431.891291 
L 201.516556 421.73869 
L 204.288079 485.099602 
L 207.059603 504.015128 
L 209.831126 443.403603 
L 212.602649 448.685404 
L 215.374172 490.468142 
L 218.145695 446.25949 
L 220.917219 433.620905 
L 223.688742 418.904557 
L 226.460265 421.77212 
L 229.231788 420.964071 
L 232.003311 421.685806 
L 234.774834 423.356103 
L 237.546358 435.264171 
L 240.317881 422.925424 
L 243.089404 419.383306 
L 245.860927 419.475235 
L 248.63245 436.413761 
L 251.403974 603.730876 
L 254.175497 362.88961 
L 256.94702 371.548859 
L 259.718543 430.243731 
L 262.490066 379.946701 
L 265.261589 381.208061 
L 270.804636 446.307321 
L 273.576159 402.036493 
L 276.347682 572.480318 
L 279.119205 579.063198 
L 281.890728 526.213269 
L 284.662252 476.361092 
L 287.433775 479.986408 
L 290.205298 338.375294 
L 292.976821 344.249956 
L 295.748344 351.114231 
L 298.519868 345.620277 
L 301.291391 391.164461 
L 304.062914 619.831103 
L 306.834437 537.453502 
L 309.60596 566.559007 
L 312.377483 511.69281 
L 315.149007 554.452136 
L 317.92053 387.163233 
L 320.692053 392.139304 
L 323.463576 420.982936 
L 326.235099 485.253382 
L 329.006623 494.598961 
L 331.778146 389.899493 
L 334.549669 385.287851 
L 337.321192 412.586463 
L 340.092715 423.972488 
L 342.864238 324.830362 
L 345.635762 322.640899 
L 348.407285 333.412405 
L 351.178808 389.286189 
L 353.950331 428.528871 
L 356.721854 509.538608 
L 359.493377 496.484258 
L 362.264901 596.324649 
L 365.036424 309.482531 
L 367.807947 302.331017 
L 370.57947 308.863338 
L 373.350993 374.272157 
L 376.122517 434.542727 
L 378.89404 610.454059 
L 381.665563 607.018041 
L 384.437086 569.542157 
L 387.208609 518.950718 
L 389.980132 266.71129 
L 392.751656 274.669928 
L 395.523179 293.885926 
L 398.294702 363.955471 
L 403.837748 617.760846 
L 406.609272 251.112357 
L 409.380795 215.279464 
L 412.152318 284.277191 
L 414.923841 649.325718 
L 417.695364 471.261149 
L 420.466887 650.475996 
L 423.238411 300.94623 
L 426.009934 581.562669 
L 428.781457 344.514564 
L 431.55298 321.491036 
L 434.324503 518.252693 
L 437.096026 286.182976 
L 439.86755 297.298967 
L 442.639073 268.893169 
L 445.410596 529.332145 
L 448.182119 255.600126 
L 450.953642 463.2914 
L 453.725166 603.318631 
L 456.496689 490.527908 
L 459.268212 255.755806 
L 462.039735 295.218637 
L 464.811258 236.632079 
L 467.582781 326.24673 
L 470.354305 296.277958 
L 473.125828 310.495459 
L 475.897351 475.026635 
L 478.668874 555.389005 
L 481.440397 288.060002 
L 484.211921 544.111377 
L 486.983444 278.273914 
L 489.754967 180.722756 
L 492.52649 242.013082 
L 495.298013 192.231456 
L 498.069536 205.754407 
L 500.84106 243.295566 
L 503.612583 409.251299 
L 506.384106 253.679584 
L 509.155629 276.107236 
L 511.927152 514.874574 
L 514.698675 460.283239 
L 517.470199 607.033832 
L 520.241722 299.795425 
L 523.013245 226.289626 
L 525.784768 278.497659 
L 528.556291 301.216127 
L 531.327815 244.840689 
L 534.099338 172.764597 
L 536.870861 250.079844 
L 539.642384 214.680027 
L 542.413907 363.913406 
L 545.18543 233.620375 
L 547.956954 231.968875 
L 550.728477 328.718181 
L 553.5 255.633816 
L 556.271523 217.785954 
L 559.043046 149.232601 
L 561.81457 160.757804 
L 564.586093 228.651974 
L 567.357616 206.53421 
L 570.129139 227.788391 
L 572.900662 374.469285 
L 575.672185 343.918516 
L 578.443709 332.717016 
L 581.215232 211.273046 
L 583.986755 356.849048 
L 586.758278 189.683573 
L 589.529801 462.160525 
L 592.301325 222.363495 
L 595.072848 653.143157 
L 597.844371 653.143157 
L 600.615894 316.743126 
L 603.387417 314.604763 
L 606.15894 556.030093 
L 608.930464 500.19005 
L 611.701987 532.0421 
L 614.47351 361.627977 
L 617.245033 177.997349 
L 620.016556 194.525431 
L 622.788079 202.658306 
L 625.559603 527.20762 
L 628.331126 499.95701 
L 631.102649 556.996767 
L 633.874172 284.637682 
L 636.645695 233.015391 
L 639.417219 313.25281 
L 642.188742 250.042422 
L 644.960265 228.723223 
L 647.731788 510.884419 
L 650.503311 361.586275 
L 653.274834 331.822601 
L 656.046358 321.647229 
L 658.817881 259.609455 
L 661.589404 174.697875 
L 664.360927 208.479848 
L 667.13245 426.51616 
L 669.903974 339.725295 
L 672.675497 540.673377 
L 675.44702 432.758075 
L 678.218543 315.543772 
L 680.990066 279.551707 
L 683.761589 284.340052 
L 686.533113 247.336085 
L 689.304636 435.304692 
L 692.076159 505.370145 
L 694.847682 559.313133 
L 697.619205 468.345927 
L 700.390728 398.254538 
L 703.162252 471.038137 
L 705.933775 486.423363 
L 708.705298 481.836112 
L 711.476821 485.38162 
L 714.248344 399.17773 
L 717.019868 373.691502 
L 719.791391 343.66875 
L 722.562914 239.68641 
L 725.334437 204.79619 
L 728.10596 171.822232 
L 730.877483 218.363993 
L 733.649007 253.137564 
L 736.42053 448.391328 
L 739.192053 344.848075 
L 741.963576 340.699997 
L 744.735099 383.857767 
L 747.506623 318.683355 
L 750.278146 213.250765 
L 753.049669 274.116472 
L 755.821192 178.65571 
L 758.592715 399.433384 
L 761.364238 291.738215 
L 764.135762 419.077253 
L 766.907285 269.045734 
L 769.678808 343.661012 
L 772.450331 381.699306 
L 775.221854 394.159238 
L 777.993377 385.576853 
L 780.764901 363.164061 
L 783.536424 412.748614 
L 786.307947 488.79425 
L 789.07947 221.697088 
L 791.850993 224.955032 
L 794.622517 366.781263 
L 797.39404 458.802073 
L 800.165563 410.037313 
L 802.937086 390.679515 
L 805.708609 357.652249 
L 808.480132 329.306423 
L 811.251656 318.702528 
L 814.023179 395.845422 
L 816.794702 426.702928 
L 819.566225 466.437642 
L 822.337748 236.898622 
L 825.109272 316.491854 
L 827.880795 284.872143 
L 830.652318 404.481286 
L 833.423841 336.63344 
L 836.195364 349.223853 
L 838.966887 332.566797 
L 841.738411 377.23475 
L 844.509934 455.582592 
L 847.281457 219.55513 
L 850.05298 192.141684 
L 852.824503 205.555793 
L 855.596026 475.594368 
L 858.36755 390.599077 
L 861.139073 283.379883 
L 863.910596 306.997953 
L 866.682119 216.06947 
L 869.453642 390.769102 
L 872.225166 380.325578 
L 874.996689 472.914258 
L 877.768212 406.084305 
L 880.539735 332.614627 
L 883.311258 347.281227 
L 886.082781 274.826567 
L 888.854305 280.530022 
L 891.625828 276.706468 
L 894.397351 193.256984 
L 897.168874 200.183452 
L 899.940397 271.194026 
L 902.711921 200.86352 
L 905.483444 245.417872 
L 908.254967 218.832402 
L 911.02649 322.277604 
L 913.798013 237.585811 
L 916.569536 271.55729 
L 919.34106 266.395376 
L 922.112583 331.769957 
L 924.884106 310.49118 
L 927.655629 285.869631 
L 930.427152 314.63164 
L 933.198675 257.667172 
L 935.970199 266.909733 
L 938.741722 290.251194 
L 941.513245 482.804052 
L 944.284768 263.737076 
L 947.056291 334.467378 
L 949.827815 653.011834 
L 952.599338 396.771852 
L 955.370861 567.201324 
L 958.142384 251.31234 
L 960.913907 254.273783 
L 963.68543 416.293813 
L 966.456954 356.891195 
L 969.228477 542.875953 
L 972 357.547707 
L 972 357.547707 
" clip-path="url(#p778e2ae9c5)" style="fill: none; stroke: #dd8452; stroke-width: 1.5; stroke-linecap: round"/>
   </g>
   <g id="patch_3">
    <path d="M 135 768.96 
L 135 103.68 
" style="fill: none; stroke: #d3d3d3; stroke-width: 1.25; stroke-linejoin: miter; stroke-linecap: square"/>
   </g>
   <g id="patch_4">
    <path d="M 135 768.96 
L 972 768.96 
" style="fill: none; stroke: #d3d3d3; stroke-width: 1.25; stroke-linejoin: miter; stroke-linecap: square"/>
   </g>
   <g id="matplotlib.axis_1">
    <g id="xtick_1">
     <g id="line2d_3">
      <defs>
       <path id="mad14b82aa3" d="M 0 0 
L 0 6 
" style="stroke: #000000; stroke-width: 1.25"/>
      </defs>
      <g>
       <use xlink:href="#mad14b82aa3" x="184.887417" y="768.96" style="stroke: #000000; stroke-width: 1.25"/>
      </g>
     </g>
     <g id="text_1">
      <!-- 2022-07-05 -->
      <g transform="translate(164.432033 829.573545) rotate(-45) scale(0.11 -0.11)">
       <defs>
        <path id="DejaVuSans-32" d="M 1228 531 
L 3431 531 
L 3431 0 
L 469 0 
L 469 531 
Q 828 903 1448 1529 
Q 2069 2156 2228 2338 
Q 2531 2678 2651 2914 
Q 2772 3150 2772 3378 
Q 2772 3750 2511 3984 
Q 2250 4219 1831 4219 
Q 1534 4219 1204 4116 
Q 875 4013 500 3803 
L 500 4441 
Q 881 4594 1212 4672 
Q 1544 4750 1819 4750 
Q 2544 4750 2975 4387 
Q 3406 4025 3406 3419 
Q 3406 3131 3298 2873 
Q 3191 2616 2906 2266 
Q 2828 2175 2409 1742 
Q 1991 1309 1228 531 
z
" transform="scale(0.015625)"/>
        <path id="DejaVuSans-30" d="M 2034 4250 
Q 1547 4250 1301 3770 
Q 1056 3291 1056 2328 
Q 1056 1369 1301 889 
Q 1547 409 2034 409 
Q 2525 409 2770 889 
Q 3016 1369 3016 2328 
Q 3016 3291 2770 3770 
Q 2525 4250 2034 4250 
z
M 2034 4750 
Q 2819 4750 3233 4129 
Q 3647 3509 3647 2328 
Q 3647 1150 3233 529 
Q 2819 -91 2034 -91 
Q 1250 -91 836 529 
Q 422 1150 422 2328 
Q 422 3509 836 4129 
Q 1250 4750 2034 4750 
z
" transform="scale(0.015625)"/>
        <path id="DejaVuSans-2d" d="M 313 2009 
L 1997 2009 
L 1997 1497 
L 313 1497 
L 313 2009 
z
" transform="scale(0.015625)"/>
        <path id="DejaVuSans-37" d="M 525 4666 
L 3525 4666 
L 3525 4397 
L 1831 0 
L 1172 0 
L 2766 4134 
L 525 4134 
L 525 4666 
z
" transform="scale(0.015625)"/>
        <path id="DejaVuSans-35" d="M 691 4666 
L 3169 4666 
L 3169 4134 
L 1269 4134 
L 1269 2991 
Q 1406 3038 1543 3061 
Q 1681 3084 1819 3084 
Q 2600 3084 3056 2656 
Q 3513 2228 3513 1497 
Q 3513 744 3044 326 
Q 2575 -91 1722 -91 
Q 1428 -91 1123 -41 
Q 819 9 494 109 
L 494 744 
Q 775 591 1075 516 
Q 1375 441 1709 441 
Q 2250 441 2565 725 
Q 2881 1009 2881 1497 
Q 2881 1984 2565 2268 
Q 2250 2553 1709 2553 
Q 1456 2553 1204 2497 
Q 953 2441 691 2322 
L 691 4666 
z
" transform="scale(0.015625)"/>
       </defs>
       <use xlink:href="#DejaVuSans-32"/>
       <use xlink:href="#DejaVuSans-30" transform="translate(63.623047 0)"/>
       <use xlink:href="#DejaVuSans-32" transform="translate(127.246094 0)"/>
       <use xlink:href="#DejaVuSans-32" transform="translate(190.869141 0)"/>
       <use xlink:href="#DejaVuSans-2d" transform="translate(254.492188 0)"/>
       <use xlink:href="#DejaVuSans-30" transform="translate(290.576172 0)"/>
       <use xlink:href="#DejaVuSans-37" transform="translate(354.199219 0)"/>
       <use xlink:href="#DejaVuSans-2d" transform="translate(417.822266 0)"/>
       <use xlink:href="#DejaVuSans-30" transform="translate(453.90625 0)"/>
       <use xlink:href="#DejaVuSans-35" transform="translate(517.529297 0)"/>
      </g>
     </g>
    </g>
    <g id="xtick_2">
     <g id="line2d_4">
      <g>
       <use xlink:href="#mad14b82aa3" x="240.317881" y="768.96" style="stroke: #000000; stroke-width: 1.25"/>
      </g>
     </g>
     <g id="text_2">
      <!-- 2022-07-25 -->
      <g transform="translate(219.862497 829.573545) rotate(-45) scale(0.11 -0.11)">
       <use xlink:href="#DejaVuSans-32"/>
       <use xlink:href="#DejaVuSans-30" transform="translate(63.623047 0)"/>
       <use xlink:href="#DejaVuSans-32" transform="translate(127.246094 0)"/>
       <use xlink:href="#DejaVuSans-32" transform="translate(190.869141 0)"/>
       <use xlink:href="#DejaVuSans-2d" transform="translate(254.492188 0)"/>
       <use xlink:href="#DejaVuSans-30" transform="translate(290.576172 0)"/>
       <use xlink:href="#DejaVuSans-37" transform="translate(354.199219 0)"/>
       <use xlink:href="#DejaVuSans-2d" transform="translate(417.822266 0)"/>
       <use xlink:href="#DejaVuSans-32" transform="translate(453.90625 0)"/>
       <use xlink:href="#DejaVuSans-35" transform="translate(517.529297 0)"/>
      </g>
     </g>
    </g>
    <g id="xtick_3">
     <g id="line2d_5">
      <g>
       <use xlink:href="#mad14b82aa3" x="295.748344" y="768.96" style="stroke: #000000; stroke-width: 1.25"/>
      </g>
     </g>
     <g id="text_3">
      <!-- 2022-08-14 -->
      <g transform="translate(275.292961 829.573545) rotate(-45) scale(0.11 -0.11)">
       <defs>
        <path id="DejaVuSans-38" d="M 2034 2216 
Q 1584 2216 1326 1975 
Q 1069 1734 1069 1313 
Q 1069 891 1326 650 
Q 1584 409 2034 409 
Q 2484 409 2743 651 
Q 3003 894 3003 1313 
Q 3003 1734 2745 1975 
Q 2488 2216 2034 2216 
z
M 1403 2484 
Q 997 2584 770 2862 
Q 544 3141 544 3541 
Q 544 4100 942 4425 
Q 1341 4750 2034 4750 
Q 2731 4750 3128 4425 
Q 3525 4100 3525 3541 
Q 3525 3141 3298 2862 
Q 3072 2584 2669 2484 
Q 3125 2378 3379 2068 
Q 3634 1759 3634 1313 
Q 3634 634 3220 271 
Q 2806 -91 2034 -91 
Q 1263 -91 848 271 
Q 434 634 434 1313 
Q 434 1759 690 2068 
Q 947 2378 1403 2484 
z
M 1172 3481 
Q 1172 3119 1398 2916 
Q 1625 2713 2034 2713 
Q 2441 2713 2670 2916 
Q 2900 3119 2900 3481 
Q 2900 3844 2670 4047 
Q 2441 4250 2034 4250 
Q 1625 4250 1398 4047 
Q 1172 3844 1172 3481 
z
" transform="scale(0.015625)"/>
        <path id="DejaVuSans-31" d="M 794 531 
L 1825 531 
L 1825 4091 
L 703 3866 
L 703 4441 
L 1819 4666 
L 2450 4666 
L 2450 531 
L 3481 531 
L 3481 0 
L 794 0 
L 794 531 
z
" transform="scale(0.015625)"/>
        <path id="DejaVuSans-34" d="M 2419 4116 
L 825 1625 
L 2419 1625 
L 2419 4116 
z
M 2253 4666 
L 3047 4666 
L 3047 1625 
L 3713 1625 
L 3713 1100 
L 3047 1100 
L 3047 0 
L 2419 0 
L 2419 1100 
L 313 1100 
L 313 1709 
L 2253 4666 
z
" transform="scale(0.015625)"/>
       </defs>
       <use xlink:href="#DejaVuSans-32"/>
       <use xlink:href="#DejaVuSans-30" transform="translate(63.623047 0)"/>
       <use xlink:href="#DejaVuSans-32" transform="translate(127.246094 0)"/>
       <use xlink:href="#DejaVuSans-32" transform="translate(190.869141 0)"/>
       <use xlink:href="#DejaVuSans-2d" transform="translate(254.492188 0)"/>
       <use xlink:href="#DejaVuSans-30" transform="translate(290.576172 0)"/>
       <use xlink:href="#DejaVuSans-38" transform="translate(354.199219 0)"/>
       <use xlink:href="#DejaVuSans-2d" transform="translate(417.822266 0)"/>
       <use xlink:href="#DejaVuSans-31" transform="translate(453.90625 0)"/>
       <use xlink:href="#DejaVuSans-34" transform="translate(517.529297 0)"/>
      </g>
     </g>
    </g>
    <g id="xtick_4">
     <g id="line2d_6">
      <g>
       <use xlink:href="#mad14b82aa3" x="351.178808" y="768.96" style="stroke: #000000; stroke-width: 1.25"/>
      </g>
     </g>
     <g id="text_4">
      <!-- 2022-09-03 -->
      <g transform="translate(330.723424 829.573545) rotate(-45) scale(0.11 -0.11)">
       <defs>
        <path id="DejaVuSans-39" d="M 703 97 
L 703 672 
Q 941 559 1184 500 
Q 1428 441 1663 441 
Q 2288 441 2617 861 
Q 2947 1281 2994 2138 
Q 2813 1869 2534 1725 
Q 2256 1581 1919 1581 
Q 1219 1581 811 2004 
Q 403 2428 403 3163 
Q 403 3881 828 4315 
Q 1253 4750 1959 4750 
Q 2769 4750 3195 4129 
Q 3622 3509 3622 2328 
Q 3622 1225 3098 567 
Q 2575 -91 1691 -91 
Q 1453 -91 1209 -44 
Q 966 3 703 97 
z
M 1959 2075 
Q 2384 2075 2632 2365 
Q 2881 2656 2881 3163 
Q 2881 3666 2632 3958 
Q 2384 4250 1959 4250 
Q 1534 4250 1286 3958 
Q 1038 3666 1038 3163 
Q 1038 2656 1286 2365 
Q 1534 2075 1959 2075 
z
" transform="scale(0.015625)"/>
        <path id="DejaVuSans-33" d="M 2597 2516 
Q 3050 2419 3304 2112 
Q 3559 1806 3559 1356 
Q 3559 666 3084 287 
Q 2609 -91 1734 -91 
Q 1441 -91 1130 -33 
Q 819 25 488 141 
L 488 750 
Q 750 597 1062 519 
Q 1375 441 1716 441 
Q 2309 441 2620 675 
Q 2931 909 2931 1356 
Q 2931 1769 2642 2001 
Q 2353 2234 1838 2234 
L 1294 2234 
L 1294 2753 
L 1863 2753 
Q 2328 2753 2575 2939 
Q 2822 3125 2822 3475 
Q 2822 3834 2567 4026 
Q 2313 4219 1838 4219 
Q 1578 4219 1281 4162 
Q 984 4106 628 3988 
L 628 4550 
Q 988 4650 1302 4700 
Q 1616 4750 1894 4750 
Q 2613 4750 3031 4423 
Q 3450 4097 3450 3541 
Q 3450 3153 3228 2886 
Q 3006 2619 2597 2516 
z
" transform="scale(0.015625)"/>
       </defs>
       <use xlink:href="#DejaVuSans-32"/>
       <use xlink:href="#DejaVuSans-30" transform="translate(63.623047 0)"/>
       <use xlink:href="#DejaVuSans-32" transform="translate(127.246094 0)"/>
       <use xlink:href="#DejaVuSans-32" transform="translate(190.869141 0)"/>
       <use xlink:href="#DejaVuSans-2d" transform="translate(254.492188 0)"/>
       <use xlink:href="#DejaVuSans-30" transform="translate(290.576172 0)"/>
       <use xlink:href="#DejaVuSans-39" transform="translate(354.199219 0)"/>
       <use xlink:href="#DejaVuSans-2d" transform="translate(417.822266 0)"/>
       <use xlink:href="#DejaVuSans-30" transform="translate(453.90625 0)"/>
       <use xlink:href="#DejaVuSans-33" transform="translate(517.529297 0)"/>
      </g>
     </g>
    </g>
    <g id="xtick_5">
     <g id="line2d_7">
      <g>
       <use xlink:href="#mad14b82aa3" x="406.609272" y="768.96" style="stroke: #000000; stroke-width: 1.25"/>
      </g>
     </g>
     <g id="text_5">
      <!-- 2022-09-23 -->
      <g transform="translate(386.153888 829.573545) rotate(-45) scale(0.11 -0.11)">
       <use xlink:href="#DejaVuSans-32"/>
       <use xlink:href="#DejaVuSans-30" transform="translate(63.623047 0)"/>
       <use xlink:href="#DejaVuSans-32" transform="translate(127.246094 0)"/>
       <use xlink:href="#DejaVuSans-32" transform="translate(190.869141 0)"/>
       <use xlink:href="#DejaVuSans-2d" transform="translate(254.492188 0)"/>
       <use xlink:href="#DejaVuSans-30" transform="translate(290.576172 0)"/>
       <use xlink:href="#DejaVuSans-39" transform="translate(354.199219 0)"/>
       <use xlink:href="#DejaVuSans-2d" transform="translate(417.822266 0)"/>
       <use xlink:href="#DejaVuSans-32" transform="translate(453.90625 0)"/>
       <use xlink:href="#DejaVuSans-33" transform="translate(517.529297 0)"/>
      </g>
     </g>
    </g>
    <g id="xtick_6">
     <g id="line2d_8">
      <g>
       <use xlink:href="#mad14b82aa3" x="462.039735" y="768.96" style="stroke: #000000; stroke-width: 1.25"/>
      </g>
     </g>
     <g id="text_6">
      <!-- 2022-10-13 -->
      <g transform="translate(441.584351 829.573545) rotate(-45) scale(0.11 -0.11)">
       <use xlink:href="#DejaVuSans-32"/>
       <use xlink:href="#DejaVuSans-30" transform="translate(63.623047 0)"/>
       <use xlink:href="#DejaVuSans-32" transform="translate(127.246094 0)"/>
       <use xlink:href="#DejaVuSans-32" transform="translate(190.869141 0)"/>
       <use xlink:href="#DejaVuSans-2d" transform="translate(254.492188 0)"/>
       <use xlink:href="#DejaVuSans-31" transform="translate(290.576172 0)"/>
       <use xlink:href="#DejaVuSans-30" transform="translate(354.199219 0)"/>
       <use xlink:href="#DejaVuSans-2d" transform="translate(417.822266 0)"/>
       <use xlink:href="#DejaVuSans-31" transform="translate(453.90625 0)"/>
       <use xlink:href="#DejaVuSans-33" transform="translate(517.529297 0)"/>
      </g>
     </g>
    </g>
    <g id="xtick_7">
     <g id="line2d_9">
      <g>
       <use xlink:href="#mad14b82aa3" x="517.470199" y="768.96" style="stroke: #000000; stroke-width: 1.25"/>
      </g>
     </g>
     <g id="text_7">
      <!-- 2022-11-02 -->
      <g transform="translate(497.014815 829.573545) rotate(-45) scale(0.11 -0.11)">
       <use xlink:href="#DejaVuSans-32"/>
       <use xlink:href="#DejaVuSans-30" transform="translate(63.623047 0)"/>
       <use xlink:href="#DejaVuSans-32" transform="translate(127.246094 0)"/>
       <use xlink:href="#DejaVuSans-32" transform="translate(190.869141 0)"/>
       <use xlink:href="#DejaVuSans-2d" transform="translate(254.492188 0)"/>
       <use xlink:href="#DejaVuSans-31" transform="translate(290.576172 0)"/>
       <use xlink:href="#DejaVuSans-31" transform="translate(354.199219 0)"/>
       <use xlink:href="#DejaVuSans-2d" transform="translate(417.822266 0)"/>
       <use xlink:href="#DejaVuSans-30" transform="translate(453.90625 0)"/>
       <use xlink:href="#DejaVuSans-32" transform="translate(517.529297 0)"/>
      </g>
     </g>
    </g>
    <g id="xtick_8">
     <g id="line2d_10">
      <g>
       <use xlink:href="#mad14b82aa3" x="572.900662" y="768.96" style="stroke: #000000; stroke-width: 1.25"/>
      </g>
     </g>
     <g id="text_8">
      <!-- 2022-11-22 -->
      <g transform="translate(552.445278 829.573545) rotate(-45) scale(0.11 -0.11)">
       <use xlink:href="#DejaVuSans-32"/>
       <use xlink:href="#DejaVuSans-30" transform="translate(63.623047 0)"/>
       <use xlink:href="#DejaVuSans-32" transform="translate(127.246094 0)"/>
       <use xlink:href="#DejaVuSans-32" transform="translate(190.869141 0)"/>
       <use xlink:href="#DejaVuSans-2d" transform="translate(254.492188 0)"/>
       <use xlink:href="#DejaVuSans-31" transform="translate(290.576172 0)"/>
       <use xlink:href="#DejaVuSans-31" transform="translate(354.199219 0)"/>
       <use xlink:href="#DejaVuSans-2d" transform="translate(417.822266 0)"/>
       <use xlink:href="#DejaVuSans-32" transform="translate(453.90625 0)"/>
       <use xlink:href="#DejaVuSans-32" transform="translate(517.529297 0)"/>
      </g>
     </g>
    </g>
    <g id="xtick_9">
     <g id="line2d_11">
      <g>
       <use xlink:href="#mad14b82aa3" x="628.331126" y="768.96" style="stroke: #000000; stroke-width: 1.25"/>
      </g>
     </g>
     <g id="text_9">
      <!-- 2022-12-12 -->
      <g transform="translate(607.875742 829.573545) rotate(-45) scale(0.11 -0.11)">
       <use xlink:href="#DejaVuSans-32"/>
       <use xlink:href="#DejaVuSans-30" transform="translate(63.623047 0)"/>
       <use xlink:href="#DejaVuSans-32" transform="translate(127.246094 0)"/>
       <use xlink:href="#DejaVuSans-32" transform="translate(190.869141 0)"/>
       <use xlink:href="#DejaVuSans-2d" transform="translate(254.492188 0)"/>
       <use xlink:href="#DejaVuSans-31" transform="translate(290.576172 0)"/>
       <use xlink:href="#DejaVuSans-32" transform="translate(354.199219 0)"/>
       <use xlink:href="#DejaVuSans-2d" transform="translate(417.822266 0)"/>
       <use xlink:href="#DejaVuSans-31" transform="translate(453.90625 0)"/>
       <use xlink:href="#DejaVuSans-32" transform="translate(517.529297 0)"/>
      </g>
     </g>
    </g>
    <g id="xtick_10">
     <g id="line2d_12">
      <g>
       <use xlink:href="#mad14b82aa3" x="683.761589" y="768.96" style="stroke: #000000; stroke-width: 1.25"/>
      </g>
     </g>
     <g id="text_10">
      <!-- 2023-01-01 -->
      <g transform="translate(663.306206 829.573545) rotate(-45) scale(0.11 -0.11)">
       <use xlink:href="#DejaVuSans-32"/>
       <use xlink:href="#DejaVuSans-30" transform="translate(63.623047 0)"/>
       <use xlink:href="#DejaVuSans-32" transform="translate(127.246094 0)"/>
       <use xlink:href="#DejaVuSans-33" transform="translate(190.869141 0)"/>
       <use xlink:href="#DejaVuSans-2d" transform="translate(254.492188 0)"/>
       <use xlink:href="#DejaVuSans-30" transform="translate(290.576172 0)"/>
       <use xlink:href="#DejaVuSans-31" transform="translate(354.199219 0)"/>
       <use xlink:href="#DejaVuSans-2d" transform="translate(417.822266 0)"/>
       <use xlink:href="#DejaVuSans-30" transform="translate(453.90625 0)"/>
       <use xlink:href="#DejaVuSans-31" transform="translate(517.529297 0)"/>
      </g>
     </g>
    </g>
    <g id="xtick_11">
     <g id="line2d_13">
      <g>
       <use xlink:href="#mad14b82aa3" x="739.192053" y="768.96" style="stroke: #000000; stroke-width: 1.25"/>
      </g>
     </g>
     <g id="text_11">
      <!-- 2023-01-21 -->
      <g transform="translate(718.736669 829.573545) rotate(-45) scale(0.11 -0.11)">
       <use xlink:href="#DejaVuSans-32"/>
       <use xlink:href="#DejaVuSans-30" transform="translate(63.623047 0)"/>
       <use xlink:href="#DejaVuSans-32" transform="translate(127.246094 0)"/>
       <use xlink:href="#DejaVuSans-33" transform="translate(190.869141 0)"/>
       <use xlink:href="#DejaVuSans-2d" transform="translate(254.492188 0)"/>
       <use xlink:href="#DejaVuSans-30" transform="translate(290.576172 0)"/>
       <use xlink:href="#DejaVuSans-31" transform="translate(354.199219 0)"/>
       <use xlink:href="#DejaVuSans-2d" transform="translate(417.822266 0)"/>
       <use xlink:href="#DejaVuSans-32" transform="translate(453.90625 0)"/>
       <use xlink:href="#DejaVuSans-31" transform="translate(517.529297 0)"/>
      </g>
     </g>
    </g>
    <g id="xtick_12">
     <g id="line2d_14">
      <g>
       <use xlink:href="#mad14b82aa3" x="794.622517" y="768.96" style="stroke: #000000; stroke-width: 1.25"/>
      </g>
     </g>
     <g id="text_12">
      <!-- 2023-02-10 -->
      <g transform="translate(774.167133 829.573545) rotate(-45) scale(0.11 -0.11)">
       <use xlink:href="#DejaVuSans-32"/>
       <use xlink:href="#DejaVuSans-30" transform="translate(63.623047 0)"/>
       <use xlink:href="#DejaVuSans-32" transform="translate(127.246094 0)"/>
       <use xlink:href="#DejaVuSans-33" transform="translate(190.869141 0)"/>
       <use xlink:href="#DejaVuSans-2d" transform="translate(254.492188 0)"/>
       <use xlink:href="#DejaVuSans-30" transform="translate(290.576172 0)"/>
       <use xlink:href="#DejaVuSans-32" transform="translate(354.199219 0)"/>
       <use xlink:href="#DejaVuSans-2d" transform="translate(417.822266 0)"/>
       <use xlink:href="#DejaVuSans-31" transform="translate(453.90625 0)"/>
       <use xlink:href="#DejaVuSans-30" transform="translate(517.529297 0)"/>
      </g>
     </g>
    </g>
    <g id="xtick_13">
     <g id="line2d_15">
      <g>
       <use xlink:href="#mad14b82aa3" x="850.05298" y="768.96" style="stroke: #000000; stroke-width: 1.25"/>
      </g>
     </g>
     <g id="text_13">
      <!-- 2023-03-02 -->
      <g transform="translate(829.597596 829.573545) rotate(-45) scale(0.11 -0.11)">
       <use xlink:href="#DejaVuSans-32"/>
       <use xlink:href="#DejaVuSans-30" transform="translate(63.623047 0)"/>
       <use xlink:href="#DejaVuSans-32" transform="translate(127.246094 0)"/>
       <use xlink:href="#DejaVuSans-33" transform="translate(190.869141 0)"/>
       <use xlink:href="#DejaVuSans-2d" transform="translate(254.492188 0)"/>
       <use xlink:href="#DejaVuSans-30" transform="translate(290.576172 0)"/>
       <use xlink:href="#DejaVuSans-33" transform="translate(354.199219 0)"/>
       <use xlink:href="#DejaVuSans-2d" transform="translate(417.822266 0)"/>
       <use xlink:href="#DejaVuSans-30" transform="translate(453.90625 0)"/>
       <use xlink:href="#DejaVuSans-32" transform="translate(517.529297 0)"/>
      </g>
     </g>
    </g>
    <g id="xtick_14">
     <g id="line2d_16">
      <g>
       <use xlink:href="#mad14b82aa3" x="905.483444" y="768.96" style="stroke: #000000; stroke-width: 1.25"/>
      </g>
     </g>
     <g id="text_14">
      <!-- 2023-03-22 -->
      <g transform="translate(885.02806 829.573545) rotate(-45) scale(0.11 -0.11)">
       <use xlink:href="#DejaVuSans-32"/>
       <use xlink:href="#DejaVuSans-30" transform="translate(63.623047 0)"/>
       <use xlink:href="#DejaVuSans-32" transform="translate(127.246094 0)"/>
       <use xlink:href="#DejaVuSans-33" transform="translate(190.869141 0)"/>
       <use xlink:href="#DejaVuSans-2d" transform="translate(254.492188 0)"/>
       <use xlink:href="#DejaVuSans-30" transform="translate(290.576172 0)"/>
       <use xlink:href="#DejaVuSans-33" transform="translate(354.199219 0)"/>
       <use xlink:href="#DejaVuSans-2d" transform="translate(417.822266 0)"/>
       <use xlink:href="#DejaVuSans-32" transform="translate(453.90625 0)"/>
       <use xlink:href="#DejaVuSans-32" transform="translate(517.529297 0)"/>
      </g>
     </g>
    </g>
    <g id="xtick_15">
     <g id="line2d_17">
      <g>
       <use xlink:href="#mad14b82aa3" x="960.913907" y="768.96" style="stroke: #000000; stroke-width: 1.25"/>
      </g>
     </g>
     <g id="text_15">
      <!-- 2023-04-11 -->
      <g transform="translate(940.458523 829.573545) rotate(-45) scale(0.11 -0.11)">
       <use xlink:href="#DejaVuSans-32"/>
       <use xlink:href="#DejaVuSans-30" transform="translate(63.623047 0)"/>
       <use xlink:href="#DejaVuSans-32" transform="translate(127.246094 0)"/>
       <use xlink:href="#DejaVuSans-33" transform="translate(190.869141 0)"/>
       <use xlink:href="#DejaVuSans-2d" transform="translate(254.492188 0)"/>
       <use xlink:href="#DejaVuSans-30" transform="translate(290.576172 0)"/>
       <use xlink:href="#DejaVuSans-34" transform="translate(354.199219 0)"/>
       <use xlink:href="#DejaVuSans-2d" transform="translate(417.822266 0)"/>
       <use xlink:href="#DejaVuSans-31" transform="translate(453.90625 0)"/>
       <use xlink:href="#DejaVuSans-31" transform="translate(517.529297 0)"/>
      </g>
     </g>
    </g>
    <g id="xtick_16">
     <g id="line2d_18">
      <defs>
       <path id="m4d9a2ee85f" d="M 0 0 
L 0 4 
" style="stroke: #000000"/>
      </defs>
      <g>
       <use xlink:href="#m4d9a2ee85f" x="143.31457" y="768.96" style="stroke: #000000"/>
      </g>
     </g>
    </g>
    <g id="xtick_17">
     <g id="line2d_19">
      <g>
       <use xlink:href="#m4d9a2ee85f" x="157.172185" y="768.96" style="stroke: #000000"/>
      </g>
     </g>
    </g>
    <g id="xtick_18">
     <g id="line2d_20">
      <g>
       <use xlink:href="#m4d9a2ee85f" x="171.029801" y="768.96" style="stroke: #000000"/>
      </g>
     </g>
    </g>
    <g id="xtick_19">
     <g id="line2d_21">
      <g>
       <use xlink:href="#m4d9a2ee85f" x="198.745033" y="768.96" style="stroke: #000000"/>
      </g>
     </g>
    </g>
    <g id="xtick_20">
     <g id="line2d_22">
      <g>
       <use xlink:href="#m4d9a2ee85f" x="212.602649" y="768.96" style="stroke: #000000"/>
      </g>
     </g>
    </g>
    <g id="xtick_21">
     <g id="line2d_23">
      <g>
       <use xlink:href="#m4d9a2ee85f" x="226.460265" y="768.96" style="stroke: #000000"/>
      </g>
     </g>
    </g>
    <g id="xtick_22">
     <g id="line2d_24">
      <g>
       <use xlink:href="#m4d9a2ee85f" x="254.175497" y="768.96" style="stroke: #000000"/>
      </g>
     </g>
    </g>
    <g id="xtick_23">
     <g id="line2d_25">
      <g>
       <use xlink:href="#m4d9a2ee85f" x="268.033113" y="768.96" style="stroke: #000000"/>
      </g>
     </g>
    </g>
    <g id="xtick_24">
     <g id="line2d_26">
      <g>
       <use xlink:href="#m4d9a2ee85f" x="281.890728" y="768.96" style="stroke: #000000"/>
      </g>
     </g>
    </g>
    <g id="xtick_25">
     <g id="line2d_27">
      <g>
       <use xlink:href="#m4d9a2ee85f" x="309.60596" y="768.96" style="stroke: #000000"/>
      </g>
     </g>
    </g>
    <g id="xtick_26">
     <g id="line2d_28">
      <g>
       <use xlink:href="#m4d9a2ee85f" x="323.463576" y="768.96" style="stroke: #000000"/>
      </g>
     </g>
    </g>
    <g id="xtick_27">
     <g id="line2d_29">
      <g>
       <use xlink:href="#m4d9a2ee85f" x="337.321192" y="768.96" style="stroke: #000000"/>
      </g>
     </g>
    </g>
    <g id="xtick_28">
     <g id="line2d_30">
      <g>
       <use xlink:href="#m4d9a2ee85f" x="365.036424" y="768.96" style="stroke: #000000"/>
      </g>
     </g>
    </g>
    <g id="xtick_29">
     <g id="line2d_31">
      <g>
       <use xlink:href="#m4d9a2ee85f" x="378.89404" y="768.96" style="stroke: #000000"/>
      </g>
     </g>
    </g>
    <g id="xtick_30">
     <g id="line2d_32">
      <g>
       <use xlink:href="#m4d9a2ee85f" x="392.751656" y="768.96" style="stroke: #000000"/>
      </g>
     </g>
    </g>
    <g id="xtick_31">
     <g id="line2d_33">
      <g>
       <use xlink:href="#m4d9a2ee85f" x="420.466887" y="768.96" style="stroke: #000000"/>
      </g>
     </g>
    </g>
    <g id="xtick_32">
     <g id="line2d_34">
      <g>
       <use xlink:href="#m4d9a2ee85f" x="434.324503" y="768.96" style="stroke: #000000"/>
      </g>
     </g>
    </g>
    <g id="xtick_33">
     <g id="line2d_35">
      <g>
       <use xlink:href="#m4d9a2ee85f" x="448.182119" y="768.96" style="stroke: #000000"/>
      </g>
     </g>
    </g>
    <g id="xtick_34">
     <g id="line2d_36">
      <g>
       <use xlink:href="#m4d9a2ee85f" x="475.897351" y="768.96" style="stroke: #000000"/>
      </g>
     </g>
    </g>
    <g id="xtick_35">
     <g id="line2d_37">
      <g>
       <use xlink:href="#m4d9a2ee85f" x="489.754967" y="768.96" style="stroke: #000000"/>
      </g>
     </g>
    </g>
    <g id="xtick_36">
     <g id="line2d_38">
      <g>
       <use xlink:href="#m4d9a2ee85f" x="503.612583" y="768.96" style="stroke: #000000"/>
      </g>
     </g>
    </g>
    <g id="xtick_37">
     <g id="line2d_39">
      <g>
       <use xlink:href="#m4d9a2ee85f" x="531.327815" y="768.96" style="stroke: #000000"/>
      </g>
     </g>
    </g>
    <g id="xtick_38">
     <g id="line2d_40">
      <g>
       <use xlink:href="#m4d9a2ee85f" x="545.18543" y="768.96" style="stroke: #000000"/>
      </g>
     </g>
    </g>
    <g id="xtick_39">
     <g id="line2d_41">
      <g>
       <use xlink:href="#m4d9a2ee85f" x="559.043046" y="768.96" style="stroke: #000000"/>
      </g>
     </g>
    </g>
    <g id="xtick_40">
     <g id="line2d_42">
      <g>
       <use xlink:href="#m4d9a2ee85f" x="586.758278" y="768.96" style="stroke: #000000"/>
      </g>
     </g>
    </g>
    <g id="xtick_41">
     <g id="line2d_43">
      <g>
       <use xlink:href="#m4d9a2ee85f" x="600.615894" y="768.96" style="stroke: #000000"/>
      </g>
     </g>
    </g>
    <g id="xtick_42">
     <g id="line2d_44">
      <g>
       <use xlink:href="#m4d9a2ee85f" x="614.47351" y="768.96" style="stroke: #000000"/>
      </g>
     </g>
    </g>
    <g id="xtick_43">
     <g id="line2d_45">
      <g>
       <use xlink:href="#m4d9a2ee85f" x="642.188742" y="768.96" style="stroke: #000000"/>
      </g>
     </g>
    </g>
    <g id="xtick_44">
     <g id="line2d_46">
      <g>
       <use xlink:href="#m4d9a2ee85f" x="656.046358" y="768.96" style="stroke: #000000"/>
      </g>
     </g>
    </g>
    <g id="xtick_45">
     <g id="line2d_47">
      <g>
       <use xlink:href="#m4d9a2ee85f" x="669.903974" y="768.96" style="stroke: #000000"/>
      </g>
     </g>
    </g>
    <g id="xtick_46">
     <g id="line2d_48">
      <g>
       <use xlink:href="#m4d9a2ee85f" x="697.619205" y="768.96" style="stroke: #000000"/>
      </g>
     </g>
    </g>
    <g id="xtick_47">
     <g id="line2d_49">
      <g>
       <use xlink:href="#m4d9a2ee85f" x="711.476821" y="768.96" style="stroke: #000000"/>
      </g>
     </g>
    </g>
    <g id="xtick_48">
     <g id="line2d_50">
      <g>
       <use xlink:href="#m4d9a2ee85f" x="725.334437" y="768.96" style="stroke: #000000"/>
      </g>
     </g>
    </g>
    <g id="xtick_49">
     <g id="line2d_51">
      <g>
       <use xlink:href="#m4d9a2ee85f" x="753.049669" y="768.96" style="stroke: #000000"/>
      </g>
     </g>
    </g>
    <g id="xtick_50">
     <g id="line2d_52">
      <g>
       <use xlink:href="#m4d9a2ee85f" x="766.907285" y="768.96" style="stroke: #000000"/>
      </g>
     </g>
    </g>
    <g id="xtick_51">
     <g id="line2d_53">
      <g>
       <use xlink:href="#m4d9a2ee85f" x="780.764901" y="768.96" style="stroke: #000000"/>
      </g>
     </g>
    </g>
    <g id="xtick_52">
     <g id="line2d_54">
      <g>
       <use xlink:href="#m4d9a2ee85f" x="808.480132" y="768.96" style="stroke: #000000"/>
      </g>
     </g>
    </g>
    <g id="xtick_53">
     <g id="line2d_55">
      <g>
       <use xlink:href="#m4d9a2ee85f" x="822.337748" y="768.96" style="stroke: #000000"/>
      </g>
     </g>
    </g>
    <g id="xtick_54">
     <g id="line2d_56">
      <g>
       <use xlink:href="#m4d9a2ee85f" x="836.195364" y="768.96" style="stroke: #000000"/>
      </g>
     </g>
    </g>
    <g id="xtick_55">
     <g id="line2d_57">
      <g>
       <use xlink:href="#m4d9a2ee85f" x="863.910596" y="768.96" style="stroke: #000000"/>
      </g>
     </g>
    </g>
    <g id="xtick_56">
     <g id="line2d_58">
      <g>
       <use xlink:href="#m4d9a2ee85f" x="877.768212" y="768.96" style="stroke: #000000"/>
      </g>
     </g>
    </g>
    <g id="xtick_57">
     <g id="line2d_59">
      <g>
       <use xlink:href="#m4d9a2ee85f" x="891.625828" y="768.96" style="stroke: #000000"/>
      </g>
     </g>
    </g>
    <g id="xtick_58">
     <g id="line2d_60">
      <g>
       <use xlink:href="#m4d9a2ee85f" x="919.34106" y="768.96" style="stroke: #000000"/>
      </g>
     </g>
    </g>
    <g id="xtick_59">
     <g id="line2d_61">
      <g>
       <use xlink:href="#m4d9a2ee85f" x="933.198675" y="768.96" style="stroke: #000000"/>
      </g>
     </g>
    </g>
    <g id="xtick_60">
     <g id="line2d_62">
      <g>
       <use xlink:href="#m4d9a2ee85f" x="947.056291" y="768.96" style="stroke: #000000"/>
      </g>
     </g>
    </g>
    <g id="text_16">
     <!-- Date -->
     <g transform="translate(531.988594 848.86835) scale(0.18 -0.18)">
      <defs>
       <path id="DejaVuSans-44" d="M 1259 4147 
L 1259 519 
L 2022 519 
Q 2988 519 3436 956 
Q 3884 1394 3884 2338 
Q 3884 3275 3436 3711 
Q 2988 4147 2022 4147 
L 1259 4147 
z
M 628 4666 
L 1925 4666 
Q 3281 4666 3915 4102 
Q 4550 3538 4550 2338 
Q 4550 1131 3912 565 
Q 3275 0 1925 0 
L 628 0 
L 628 4666 
z
" transform="scale(0.015625)"/>
       <path id="DejaVuSans-61" d="M 2194 1759 
Q 1497 1759 1228 1600 
Q 959 1441 959 1056 
Q 959 750 1161 570 
Q 1363 391 1709 391 
Q 2188 391 2477 730 
Q 2766 1069 2766 1631 
L 2766 1759 
L 2194 1759 
z
M 3341 1997 
L 3341 0 
L 2766 0 
L 2766 531 
Q 2569 213 2275 61 
Q 1981 -91 1556 -91 
Q 1019 -91 701 211 
Q 384 513 384 1019 
Q 384 1609 779 1909 
Q 1175 2209 1959 2209 
L 2766 2209 
L 2766 2266 
Q 2766 2663 2505 2880 
Q 2244 3097 1772 3097 
Q 1472 3097 1187 3025 
Q 903 2953 641 2809 
L 641 3341 
Q 956 3463 1253 3523 
Q 1550 3584 1831 3584 
Q 2591 3584 2966 3190 
Q 3341 2797 3341 1997 
z
" transform="scale(0.015625)"/>
       <path id="DejaVuSans-74" d="M 1172 4494 
L 1172 3500 
L 2356 3500 
L 2356 3053 
L 1172 3053 
L 1172 1153 
Q 1172 725 1289 603 
Q 1406 481 1766 481 
L 2356 481 
L 2356 0 
L 1766 0 
Q 1100 0 847 248 
Q 594 497 594 1153 
L 594 3053 
L 172 3053 
L 172 3500 
L 594 3500 
L 594 4494 
L 1172 4494 
z
" transform="scale(0.015625)"/>
       <path id="DejaVuSans-65" d="M 3597 1894 
L 3597 1613 
L 953 1613 
Q 991 1019 1311 708 
Q 1631 397 2203 397 
Q 2534 397 2845 478 
Q 3156 559 3463 722 
L 3463 178 
Q 3153 47 2828 -22 
Q 2503 -91 2169 -91 
Q 1331 -91 842 396 
Q 353 884 353 1716 
Q 353 2575 817 3079 
Q 1281 3584 2069 3584 
Q 2775 3584 3186 3129 
Q 3597 2675 3597 1894 
z
M 3022 2063 
Q 3016 2534 2758 2815 
Q 2500 3097 2075 3097 
Q 1594 3097 1305 2825 
Q 1016 2553 972 2059 
L 3022 2063 
z
" transform="scale(0.015625)"/>
      </defs>
      <use xlink:href="#DejaVuSans-44"/>
      <use xlink:href="#DejaVuSans-61" transform="translate(77.001953 0)"/>
      <use xlink:href="#DejaVuSans-74" transform="translate(138.28125 0)"/>
      <use xlink:href="#DejaVuSans-65" transform="translate(177.490234 0)"/>
     </g>
    </g>
   </g>
   <g id="matplotlib.axis_2">
    <g id="ytick_1">
     <g id="line2d_63">
      <defs>
       <path id="m8e5f7fbf3a" d="M 0 0 
L -6 0 
" style="stroke: #000000; stroke-width: 1.25"/>
      </defs>
      <g>
       <use xlink:href="#m8e5f7fbf3a" x="135" y="748.392212" style="stroke: #000000; stroke-width: 1.25"/>
      </g>
     </g>
     <g id="text_17">
      <!-- 0 -->
      <g transform="translate(118.50125 752.571353) scale(0.11 -0.11)">
       <use xlink:href="#DejaVuSans-30"/>
      </g>
     </g>
    </g>
    <g id="ytick_2">
     <g id="line2d_64">
      <g>
       <use xlink:href="#m8e5f7fbf3a" x="135" y="662.797415" style="stroke: #000000; stroke-width: 1.25"/>
      </g>
     </g>
     <g id="text_18">
      <!-- 25 -->
      <g transform="translate(111.5025 666.976555) scale(0.11 -0.11)">
       <use xlink:href="#DejaVuSans-32"/>
       <use xlink:href="#DejaVuSans-35" transform="translate(63.623047 0)"/>
      </g>
     </g>
    </g>
    <g id="ytick_3">
     <g id="line2d_65">
      <g>
       <use xlink:href="#m8e5f7fbf3a" x="135" y="577.202617" style="stroke: #000000; stroke-width: 1.25"/>
      </g>
     </g>
     <g id="text_19">
      <!-- 50 -->
      <g transform="translate(111.5025 581.381758) scale(0.11 -0.11)">
       <use xlink:href="#DejaVuSans-35"/>
       <use xlink:href="#DejaVuSans-30" transform="translate(63.623047 0)"/>
      </g>
     </g>
    </g>
    <g id="ytick_4">
     <g id="line2d_66">
      <g>
       <use xlink:href="#m8e5f7fbf3a" x="135" y="491.60782" style="stroke: #000000; stroke-width: 1.25"/>
      </g>
     </g>
     <g id="text_20">
      <!-- 75 -->
      <g transform="translate(111.5025 495.78696) scale(0.11 -0.11)">
       <use xlink:href="#DejaVuSans-37"/>
       <use xlink:href="#DejaVuSans-35" transform="translate(63.623047 0)"/>
      </g>
     </g>
    </g>
    <g id="ytick_5">
     <g id="line2d_67">
      <g>
       <use xlink:href="#m8e5f7fbf3a" x="135" y="406.013022" style="stroke: #000000; stroke-width: 1.25"/>
      </g>
     </g>
     <g id="text_21">
      <!-- 100 -->
      <g transform="translate(104.50375 410.192163) scale(0.11 -0.11)">
       <use xlink:href="#DejaVuSans-31"/>
       <use xlink:href="#DejaVuSans-30" transform="translate(63.623047 0)"/>
       <use xlink:href="#DejaVuSans-30" transform="translate(127.246094 0)"/>
      </g>
     </g>
    </g>
    <g id="ytick_6">
     <g id="line2d_68">
      <g>
       <use xlink:href="#m8e5f7fbf3a" x="135" y="320.418225" style="stroke: #000000; stroke-width: 1.25"/>
      </g>
     </g>
     <g id="text_22">
      <!-- 125 -->
      <g transform="translate(104.50375 324.597365) scale(0.11 -0.11)">
       <use xlink:href="#DejaVuSans-31"/>
       <use xlink:href="#DejaVuSans-32" transform="translate(63.623047 0)"/>
       <use xlink:href="#DejaVuSans-35" transform="translate(127.246094 0)"/>
      </g>
     </g>
    </g>
    <g id="ytick_7">
     <g id="line2d_69">
      <g>
       <use xlink:href="#m8e5f7fbf3a" x="135" y="234.823427" style="stroke: #000000; stroke-width: 1.25"/>
      </g>
     </g>
     <g id="text_23">
      <!-- 150 -->
      <g transform="translate(104.50375 239.002568) scale(0.11 -0.11)">
       <use xlink:href="#DejaVuSans-31"/>
       <use xlink:href="#DejaVuSans-35" transform="translate(63.623047 0)"/>
       <use xlink:href="#DejaVuSans-30" transform="translate(127.246094 0)"/>
      </g>
     </g>
    </g>
    <g id="ytick_8">
     <g id="line2d_70">
      <g>
       <use xlink:href="#m8e5f7fbf3a" x="135" y="149.22863" style="stroke: #000000; stroke-width: 1.25"/>
      </g>
     </g>
     <g id="text_24">
      <!-- 175 -->
      <g transform="translate(104.50375 153.40777) scale(0.11 -0.11)">
       <use xlink:href="#DejaVuSans-31"/>
       <use xlink:href="#DejaVuSans-37" transform="translate(63.623047 0)"/>
       <use xlink:href="#DejaVuSans-35" transform="translate(127.246094 0)"/>
      </g>
     </g>
    </g>
    <g id="ytick_9">
     <g id="line2d_71">
      <defs>
       <path id="m0c995abcda" d="M 0 0 
L -4 0 
" style="stroke: #000000"/>
      </defs>
      <g>
       <use xlink:href="#m0c995abcda" x="135" y="765.511172" style="stroke: #000000"/>
      </g>
     </g>
    </g>
    <g id="ytick_10">
     <g id="line2d_72">
      <g>
       <use xlink:href="#m0c995abcda" x="135" y="731.273253" style="stroke: #000000"/>
      </g>
     </g>
    </g>
    <g id="ytick_11">
     <g id="line2d_73">
      <g>
       <use xlink:href="#m0c995abcda" x="135" y="714.154293" style="stroke: #000000"/>
      </g>
     </g>
    </g>
    <g id="ytick_12">
     <g id="line2d_74">
      <g>
       <use xlink:href="#m0c995abcda" x="135" y="697.035334" style="stroke: #000000"/>
      </g>
     </g>
    </g>
    <g id="ytick_13">
     <g id="line2d_75">
      <g>
       <use xlink:href="#m0c995abcda" x="135" y="679.916374" style="stroke: #000000"/>
      </g>
     </g>
    </g>
    <g id="ytick_14">
     <g id="line2d_76">
      <g>
       <use xlink:href="#m0c995abcda" x="135" y="645.678455" style="stroke: #000000"/>
      </g>
     </g>
    </g>
    <g id="ytick_15">
     <g id="line2d_77">
      <g>
       <use xlink:href="#m0c995abcda" x="135" y="628.559496" style="stroke: #000000"/>
      </g>
     </g>
    </g>
    <g id="ytick_16">
     <g id="line2d_78">
      <g>
       <use xlink:href="#m0c995abcda" x="135" y="611.440536" style="stroke: #000000"/>
      </g>
     </g>
    </g>
    <g id="ytick_17">
     <g id="line2d_79">
      <g>
       <use xlink:href="#m0c995abcda" x="135" y="594.321577" style="stroke: #000000"/>
      </g>
     </g>
    </g>
    <g id="ytick_18">
     <g id="line2d_80">
      <g>
       <use xlink:href="#m0c995abcda" x="135" y="560.083658" style="stroke: #000000"/>
      </g>
     </g>
    </g>
    <g id="ytick_19">
     <g id="line2d_81">
      <g>
       <use xlink:href="#m0c995abcda" x="135" y="542.964698" style="stroke: #000000"/>
      </g>
     </g>
    </g>
    <g id="ytick_20">
     <g id="line2d_82">
      <g>
       <use xlink:href="#m0c995abcda" x="135" y="525.845739" style="stroke: #000000"/>
      </g>
     </g>
    </g>
    <g id="ytick_21">
     <g id="line2d_83">
      <g>
       <use xlink:href="#m0c995abcda" x="135" y="508.726779" style="stroke: #000000"/>
      </g>
     </g>
    </g>
    <g id="ytick_22">
     <g id="line2d_84">
      <g>
       <use xlink:href="#m0c995abcda" x="135" y="474.48886" style="stroke: #000000"/>
      </g>
     </g>
    </g>
    <g id="ytick_23">
     <g id="line2d_85">
      <g>
       <use xlink:href="#m0c995abcda" x="135" y="457.369901" style="stroke: #000000"/>
      </g>
     </g>
    </g>
    <g id="ytick_24">
     <g id="line2d_86">
      <g>
       <use xlink:href="#m0c995abcda" x="135" y="440.250941" style="stroke: #000000"/>
      </g>
     </g>
    </g>
    <g id="ytick_25">
     <g id="line2d_87">
      <g>
       <use xlink:href="#m0c995abcda" x="135" y="423.131982" style="stroke: #000000"/>
      </g>
     </g>
    </g>
    <g id="ytick_26">
     <g id="line2d_88">
      <g>
       <use xlink:href="#m0c995abcda" x="135" y="388.894063" style="stroke: #000000"/>
      </g>
     </g>
    </g>
    <g id="ytick_27">
     <g id="line2d_89">
      <g>
       <use xlink:href="#m0c995abcda" x="135" y="371.775103" style="stroke: #000000"/>
      </g>
     </g>
    </g>
    <g id="ytick_28">
     <g id="line2d_90">
      <g>
       <use xlink:href="#m0c995abcda" x="135" y="354.656144" style="stroke: #000000"/>
      </g>
     </g>
    </g>
    <g id="ytick_29">
     <g id="line2d_91">
      <g>
       <use xlink:href="#m0c995abcda" x="135" y="337.537184" style="stroke: #000000"/>
      </g>
     </g>
    </g>
    <g id="ytick_30">
     <g id="line2d_92">
      <g>
       <use xlink:href="#m0c995abcda" x="135" y="303.299265" style="stroke: #000000"/>
      </g>
     </g>
    </g>
    <g id="ytick_31">
     <g id="line2d_93">
      <g>
       <use xlink:href="#m0c995abcda" x="135" y="286.180306" style="stroke: #000000"/>
      </g>
     </g>
    </g>
    <g id="ytick_32">
     <g id="line2d_94">
      <g>
       <use xlink:href="#m0c995abcda" x="135" y="269.061346" style="stroke: #000000"/>
      </g>
     </g>
    </g>
    <g id="ytick_33">
     <g id="line2d_95">
      <g>
       <use xlink:href="#m0c995abcda" x="135" y="251.942387" style="stroke: #000000"/>
      </g>
     </g>
    </g>
    <g id="ytick_34">
     <g id="line2d_96">
      <g>
       <use xlink:href="#m0c995abcda" x="135" y="217.704468" style="stroke: #000000"/>
      </g>
     </g>
    </g>
    <g id="ytick_35">
     <g id="line2d_97">
      <g>
       <use xlink:href="#m0c995abcda" x="135" y="200.585508" style="stroke: #000000"/>
      </g>
     </g>
    </g>
    <g id="ytick_36">
     <g id="line2d_98">
      <g>
       <use xlink:href="#m0c995abcda" x="135" y="183.466549" style="stroke: #000000"/>
      </g>
     </g>
    </g>
    <g id="ytick_37">
     <g id="line2d_99">
      <g>
       <use xlink:href="#m0c995abcda" x="135" y="166.347589" style="stroke: #000000"/>
      </g>
     </g>
    </g>
    <g id="ytick_38">
     <g id="line2d_100">
      <g>
       <use xlink:href="#m0c995abcda" x="135" y="132.10967" style="stroke: #000000"/>
      </g>
     </g>
    </g>
    <g id="ytick_39">
     <g id="line2d_101">
      <g>
       <use xlink:href="#m0c995abcda" x="135" y="114.990711" style="stroke: #000000"/>
      </g>
     </g>
    </g>
    <g id="text_25">
     <!-- Energy (kWh) -->
     <g transform="translate(96.760312 497.528437) rotate(-90) scale(0.18 -0.18)">
      <defs>
       <path id="DejaVuSans-45" d="M 628 4666 
L 3578 4666 
L 3578 4134 
L 1259 4134 
L 1259 2753 
L 3481 2753 
L 3481 2222 
L 1259 2222 
L 1259 531 
L 3634 531 
L 3634 0 
L 628 0 
L 628 4666 
z
" transform="scale(0.015625)"/>
       <path id="DejaVuSans-6e" d="M 3513 2113 
L 3513 0 
L 2938 0 
L 2938 2094 
Q 2938 2591 2744 2837 
Q 2550 3084 2163 3084 
Q 1697 3084 1428 2787 
Q 1159 2491 1159 1978 
L 1159 0 
L 581 0 
L 581 3500 
L 1159 3500 
L 1159 2956 
Q 1366 3272 1645 3428 
Q 1925 3584 2291 3584 
Q 2894 3584 3203 3211 
Q 3513 2838 3513 2113 
z
" transform="scale(0.015625)"/>
       <path id="DejaVuSans-72" d="M 2631 2963 
Q 2534 3019 2420 3045 
Q 2306 3072 2169 3072 
Q 1681 3072 1420 2755 
Q 1159 2438 1159 1844 
L 1159 0 
L 581 0 
L 581 3500 
L 1159 3500 
L 1159 2956 
Q 1341 3275 1631 3429 
Q 1922 3584 2338 3584 
Q 2397 3584 2469 3576 
Q 2541 3569 2628 3553 
L 2631 2963 
z
" transform="scale(0.015625)"/>
       <path id="DejaVuSans-67" d="M 2906 1791 
Q 2906 2416 2648 2759 
Q 2391 3103 1925 3103 
Q 1463 3103 1205 2759 
Q 947 2416 947 1791 
Q 947 1169 1205 825 
Q 1463 481 1925 481 
Q 2391 481 2648 825 
Q 2906 1169 2906 1791 
z
M 3481 434 
Q 3481 -459 3084 -895 
Q 2688 -1331 1869 -1331 
Q 1566 -1331 1297 -1286 
Q 1028 -1241 775 -1147 
L 775 -588 
Q 1028 -725 1275 -790 
Q 1522 -856 1778 -856 
Q 2344 -856 2625 -561 
Q 2906 -266 2906 331 
L 2906 616 
Q 2728 306 2450 153 
Q 2172 0 1784 0 
Q 1141 0 747 490 
Q 353 981 353 1791 
Q 353 2603 747 3093 
Q 1141 3584 1784 3584 
Q 2172 3584 2450 3431 
Q 2728 3278 2906 2969 
L 2906 3500 
L 3481 3500 
L 3481 434 
z
" transform="scale(0.015625)"/>
       <path id="DejaVuSans-79" d="M 2059 -325 
Q 1816 -950 1584 -1140 
Q 1353 -1331 966 -1331 
L 506 -1331 
L 506 -850 
L 844 -850 
Q 1081 -850 1212 -737 
Q 1344 -625 1503 -206 
L 1606 56 
L 191 3500 
L 800 3500 
L 1894 763 
L 2988 3500 
L 3597 3500 
L 2059 -325 
z
" transform="scale(0.015625)"/>
       <path id="DejaVuSans-20" transform="scale(0.015625)"/>
       <path id="DejaVuSans-28" d="M 1984 4856 
Q 1566 4138 1362 3434 
Q 1159 2731 1159 2009 
Q 1159 1288 1364 580 
Q 1569 -128 1984 -844 
L 1484 -844 
Q 1016 -109 783 600 
Q 550 1309 550 2009 
Q 550 2706 781 3412 
Q 1013 4119 1484 4856 
L 1984 4856 
z
" transform="scale(0.015625)"/>
       <path id="DejaVuSans-6b" d="M 581 4863 
L 1159 4863 
L 1159 1991 
L 2875 3500 
L 3609 3500 
L 1753 1863 
L 3688 0 
L 2938 0 
L 1159 1709 
L 1159 0 
L 581 0 
L 581 4863 
z
" transform="scale(0.015625)"/>
       <path id="DejaVuSans-57" d="M 213 4666 
L 850 4666 
L 1831 722 
L 2809 4666 
L 3519 4666 
L 4500 722 
L 5478 4666 
L 6119 4666 
L 4947 0 
L 4153 0 
L 3169 4050 
L 2175 0 
L 1381 0 
L 213 4666 
z
" transform="scale(0.015625)"/>
       <path id="DejaVuSans-68" d="M 3513 2113 
L 3513 0 
L 2938 0 
L 2938 2094 
Q 2938 2591 2744 2837 
Q 2550 3084 2163 3084 
Q 1697 3084 1428 2787 
Q 1159 2491 1159 1978 
L 1159 0 
L 581 0 
L 581 4863 
L 1159 4863 
L 1159 2956 
Q 1366 3272 1645 3428 
Q 1925 3584 2291 3584 
Q 2894 3584 3203 3211 
Q 3513 2838 3513 2113 
z
" transform="scale(0.015625)"/>
       <path id="DejaVuSans-29" d="M 513 4856 
L 1013 4856 
Q 1481 4119 1714 3412 
Q 1947 2706 1947 2009 
Q 1947 1309 1714 600 
Q 1481 -109 1013 -844 
L 513 -844 
Q 928 -128 1133 580 
Q 1338 1288 1338 2009 
Q 1338 2731 1133 3434 
Q 928 4138 513 4856 
z
" transform="scale(0.015625)"/>
      </defs>
      <use xlink:href="#DejaVuSans-45"/>
      <use xlink:href="#DejaVuSans-6e" transform="translate(63.183594 0)"/>
      <use xlink:href="#DejaVuSans-65" transform="translate(126.5625 0)"/>
      <use xlink:href="#DejaVuSans-72" transform="translate(188.085938 0)"/>
      <use xlink:href="#DejaVuSans-67" transform="translate(227.449219 0)"/>
      <use xlink:href="#DejaVuSans-79" transform="translate(290.925781 0)"/>
      <use xlink:href="#DejaVuSans-20" transform="translate(350.105469 0)"/>
      <use xlink:href="#DejaVuSans-28" transform="translate(381.892578 0)"/>
      <use xlink:href="#DejaVuSans-6b" transform="translate(420.90625 0)"/>
      <use xlink:href="#DejaVuSans-57" transform="translate(478.816406 0)"/>
      <use xlink:href="#DejaVuSans-68" transform="translate(577.693359 0)"/>
      <use xlink:href="#DejaVuSans-29" transform="translate(641.072266 0)"/>
     </g>
    </g>
   </g>
   <g id="text_26">
    <!-- Solar Energy Forecasting - GMU -->
    <g transform="translate(363.564375 97.68) scale(0.24 -0.24)">
     <defs>
      <path id="DejaVuSans-53" d="M 3425 4513 
L 3425 3897 
Q 3066 4069 2747 4153 
Q 2428 4238 2131 4238 
Q 1616 4238 1336 4038 
Q 1056 3838 1056 3469 
Q 1056 3159 1242 3001 
Q 1428 2844 1947 2747 
L 2328 2669 
Q 3034 2534 3370 2195 
Q 3706 1856 3706 1288 
Q 3706 609 3251 259 
Q 2797 -91 1919 -91 
Q 1588 -91 1214 -16 
Q 841 59 441 206 
L 441 856 
Q 825 641 1194 531 
Q 1563 422 1919 422 
Q 2459 422 2753 634 
Q 3047 847 3047 1241 
Q 3047 1584 2836 1778 
Q 2625 1972 2144 2069 
L 1759 2144 
Q 1053 2284 737 2584 
Q 422 2884 422 3419 
Q 422 4038 858 4394 
Q 1294 4750 2059 4750 
Q 2388 4750 2728 4690 
Q 3069 4631 3425 4513 
z
" transform="scale(0.015625)"/>
      <path id="DejaVuSans-6f" d="M 1959 3097 
Q 1497 3097 1228 2736 
Q 959 2375 959 1747 
Q 959 1119 1226 758 
Q 1494 397 1959 397 
Q 2419 397 2687 759 
Q 2956 1122 2956 1747 
Q 2956 2369 2687 2733 
Q 2419 3097 1959 3097 
z
M 1959 3584 
Q 2709 3584 3137 3096 
Q 3566 2609 3566 1747 
Q 3566 888 3137 398 
Q 2709 -91 1959 -91 
Q 1206 -91 779 398 
Q 353 888 353 1747 
Q 353 2609 779 3096 
Q 1206 3584 1959 3584 
z
" transform="scale(0.015625)"/>
      <path id="DejaVuSans-6c" d="M 603 4863 
L 1178 4863 
L 1178 0 
L 603 0 
L 603 4863 
z
" transform="scale(0.015625)"/>
      <path id="DejaVuSans-46" d="M 628 4666 
L 3309 4666 
L 3309 4134 
L 1259 4134 
L 1259 2759 
L 3109 2759 
L 3109 2228 
L 1259 2228 
L 1259 0 
L 628 0 
L 628 4666 
z
" transform="scale(0.015625)"/>
      <path id="DejaVuSans-63" d="M 3122 3366 
L 3122 2828 
Q 2878 2963 2633 3030 
Q 2388 3097 2138 3097 
Q 1578 3097 1268 2742 
Q 959 2388 959 1747 
Q 959 1106 1268 751 
Q 1578 397 2138 397 
Q 2388 397 2633 464 
Q 2878 531 3122 666 
L 3122 134 
Q 2881 22 2623 -34 
Q 2366 -91 2075 -91 
Q 1284 -91 818 406 
Q 353 903 353 1747 
Q 353 2603 823 3093 
Q 1294 3584 2113 3584 
Q 2378 3584 2631 3529 
Q 2884 3475 3122 3366 
z
" transform="scale(0.015625)"/>
      <path id="DejaVuSans-73" d="M 2834 3397 
L 2834 2853 
Q 2591 2978 2328 3040 
Q 2066 3103 1784 3103 
Q 1356 3103 1142 2972 
Q 928 2841 928 2578 
Q 928 2378 1081 2264 
Q 1234 2150 1697 2047 
L 1894 2003 
Q 2506 1872 2764 1633 
Q 3022 1394 3022 966 
Q 3022 478 2636 193 
Q 2250 -91 1575 -91 
Q 1294 -91 989 -36 
Q 684 19 347 128 
L 347 722 
Q 666 556 975 473 
Q 1284 391 1588 391 
Q 1994 391 2212 530 
Q 2431 669 2431 922 
Q 2431 1156 2273 1281 
Q 2116 1406 1581 1522 
L 1381 1569 
Q 847 1681 609 1914 
Q 372 2147 372 2553 
Q 372 3047 722 3315 
Q 1072 3584 1716 3584 
Q 2034 3584 2315 3537 
Q 2597 3491 2834 3397 
z
" transform="scale(0.015625)"/>
      <path id="DejaVuSans-69" d="M 603 3500 
L 1178 3500 
L 1178 0 
L 603 0 
L 603 3500 
z
M 603 4863 
L 1178 4863 
L 1178 4134 
L 603 4134 
L 603 4863 
z
" transform="scale(0.015625)"/>
      <path id="DejaVuSans-47" d="M 3809 666 
L 3809 1919 
L 2778 1919 
L 2778 2438 
L 4434 2438 
L 4434 434 
Q 4069 175 3628 42 
Q 3188 -91 2688 -91 
Q 1594 -91 976 548 
Q 359 1188 359 2328 
Q 359 3472 976 4111 
Q 1594 4750 2688 4750 
Q 3144 4750 3555 4637 
Q 3966 4525 4313 4306 
L 4313 3634 
Q 3963 3931 3569 4081 
Q 3175 4231 2741 4231 
Q 1884 4231 1454 3753 
Q 1025 3275 1025 2328 
Q 1025 1384 1454 906 
Q 1884 428 2741 428 
Q 3075 428 3337 486 
Q 3600 544 3809 666 
z
" transform="scale(0.015625)"/>
      <path id="DejaVuSans-4d" d="M 628 4666 
L 1569 4666 
L 2759 1491 
L 3956 4666 
L 4897 4666 
L 4897 0 
L 4281 0 
L 4281 4097 
L 3078 897 
L 2444 897 
L 1241 4097 
L 1241 0 
L 628 0 
L 628 4666 
z
" transform="scale(0.015625)"/>
      <path id="DejaVuSans-55" d="M 556 4666 
L 1191 4666 
L 1191 1831 
Q 1191 1081 1462 751 
Q 1734 422 2344 422 
Q 2950 422 3222 751 
Q 3494 1081 3494 1831 
L 3494 4666 
L 4128 4666 
L 4128 1753 
Q 4128 841 3676 375 
Q 3225 -91 2344 -91 
Q 1459 -91 1007 375 
Q 556 841 556 1753 
L 556 4666 
z
" transform="scale(0.015625)"/>
     </defs>
     <use xlink:href="#DejaVuSans-53"/>
     <use xlink:href="#DejaVuSans-6f" transform="translate(63.476562 0)"/>
     <use xlink:href="#DejaVuSans-6c" transform="translate(124.658203 0)"/>
     <use xlink:href="#DejaVuSans-61" transform="translate(152.441406 0)"/>
     <use xlink:href="#DejaVuSans-72" transform="translate(213.720703 0)"/>
     <use xlink:href="#DejaVuSans-20" transform="translate(254.833984 0)"/>
     <use xlink:href="#DejaVuSans-45" transform="translate(286.621094 0)"/>
     <use xlink:href="#DejaVuSans-6e" transform="translate(349.804688 0)"/>
     <use xlink:href="#DejaVuSans-65" transform="translate(413.183594 0)"/>
     <use xlink:href="#DejaVuSans-72" transform="translate(474.707031 0)"/>
     <use xlink:href="#DejaVuSans-67" transform="translate(514.070312 0)"/>
     <use xlink:href="#DejaVuSans-79" transform="translate(577.546875 0)"/>
     <use xlink:href="#DejaVuSans-20" transform="translate(636.726562 0)"/>
     <use xlink:href="#DejaVuSans-46" transform="translate(668.513672 0)"/>
     <use xlink:href="#DejaVuSans-6f" transform="translate(722.408203 0)"/>
     <use xlink:href="#DejaVuSans-72" transform="translate(783.589844 0)"/>
     <use xlink:href="#DejaVuSans-65" transform="translate(822.453125 0)"/>
     <use xlink:href="#DejaVuSans-63" transform="translate(883.976562 0)"/>
     <use xlink:href="#DejaVuSans-61" transform="translate(938.957031 0)"/>
     <use xlink:href="#DejaVuSans-73" transform="translate(1000.236328 0)"/>
     <use xlink:href="#DejaVuSans-74" transform="translate(1052.335938 0)"/>
     <use xlink:href="#DejaVuSans-69" transform="translate(1091.544922 0)"/>
     <use xlink:href="#DejaVuSans-6e" transform="translate(1119.328125 0)"/>
     <use xlink:href="#DejaVuSans-67" transform="translate(1182.707031 0)"/>
     <use xlink:href="#DejaVuSans-20" transform="translate(1246.183594 0)"/>
     <use xlink:href="#DejaVuSans-2d" transform="translate(1277.970703 0)"/>
     <use xlink:href="#DejaVuSans-20" transform="translate(1314.054688 0)"/>
     <use xlink:href="#DejaVuSans-47" transform="translate(1345.841797 0)"/>
     <use xlink:href="#DejaVuSans-4d" transform="translate(1423.332031 0)"/>
     <use xlink:href="#DejaVuSans-55" transform="translate(1509.611328 0)"/>
    </g>
   </g>
   <g id="legend_1">
    <g id="patch_5">
     <path d="M 904.960156 144.771875 
L 964.3 144.771875 
Q 966.5 144.771875 966.5 142.571875 
L 966.5 111.38 
Q 966.5 109.18 964.3 109.18 
L 904.960156 109.18 
Q 902.760156 109.18 902.760156 111.38 
L 902.760156 142.571875 
Q 902.760156 144.771875 904.960156 144.771875 
L 904.960156 144.771875 
z
" style="fill: none; opacity: 0.8; stroke: #cccccc; stroke-linejoin: miter"/>
    </g>
    <g id="line2d_102">
     <path d="M 907.160156 118.088281 
L 918.160156 118.088281 
L 929.160156 118.088281 
" style="fill: none; stroke: #4c72b0; stroke-width: 1.5; stroke-linecap: round"/>
    </g>
    <g id="text_27">
     <!-- Real -->
     <g transform="translate(937.960156 121.938281) scale(0.11 -0.11)">
      <defs>
       <path id="DejaVuSans-52" d="M 2841 2188 
Q 3044 2119 3236 1894 
Q 3428 1669 3622 1275 
L 4263 0 
L 3584 0 
L 2988 1197 
Q 2756 1666 2539 1819 
Q 2322 1972 1947 1972 
L 1259 1972 
L 1259 0 
L 628 0 
L 628 4666 
L 2053 4666 
Q 2853 4666 3247 4331 
Q 3641 3997 3641 3322 
Q 3641 2881 3436 2590 
Q 3231 2300 2841 2188 
z
M 1259 4147 
L 1259 2491 
L 2053 2491 
Q 2509 2491 2742 2702 
Q 2975 2913 2975 3322 
Q 2975 3731 2742 3939 
Q 2509 4147 2053 4147 
L 1259 4147 
z
" transform="scale(0.015625)"/>
      </defs>
      <use xlink:href="#DejaVuSans-52"/>
      <use xlink:href="#DejaVuSans-65" transform="translate(64.982422 0)"/>
      <use xlink:href="#DejaVuSans-61" transform="translate(126.505859 0)"/>
      <use xlink:href="#DejaVuSans-6c" transform="translate(187.785156 0)"/>
     </g>
    </g>
    <g id="line2d_103">
     <path d="M 907.160156 134.234219 
L 918.160156 134.234219 
L 929.160156 134.234219 
" style="fill: none; stroke: #dd8452; stroke-width: 1.5; stroke-linecap: round"/>
    </g>
    <g id="text_28">
     <!-- CNN -->
     <g transform="translate(937.960156 138.084219) scale(0.11 -0.11)">
      <defs>
       <path id="DejaVuSans-43" d="M 4122 4306 
L 4122 3641 
Q 3803 3938 3442 4084 
Q 3081 4231 2675 4231 
Q 1875 4231 1450 3742 
Q 1025 3253 1025 2328 
Q 1025 1406 1450 917 
Q 1875 428 2675 428 
Q 3081 428 3442 575 
Q 3803 722 4122 1019 
L 4122 359 
Q 3791 134 3420 21 
Q 3050 -91 2638 -91 
Q 1578 -91 968 557 
Q 359 1206 359 2328 
Q 359 3453 968 4101 
Q 1578 4750 2638 4750 
Q 3056 4750 3426 4639 
Q 3797 4528 4122 4306 
z
" transform="scale(0.015625)"/>
       <path id="DejaVuSans-4e" d="M 628 4666 
L 1478 4666 
L 3547 763 
L 3547 4666 
L 4159 4666 
L 4159 0 
L 3309 0 
L 1241 3903 
L 1241 0 
L 628 0 
L 628 4666 
z
" transform="scale(0.015625)"/>
      </defs>
      <use xlink:href="#DejaVuSans-43"/>
      <use xlink:href="#DejaVuSans-4e" transform="translate(69.824219 0)"/>
      <use xlink:href="#DejaVuSans-4e" transform="translate(144.628906 0)"/>
     </g>
    </g>
   </g>
  </g>
 </g>
 <defs>
  <clipPath id="p778e2ae9c5">
   <rect x="135" y="103.68" width="837" height="665.28"/>
  </clipPath>
 </defs>
</svg>
