<?xml version="1.0" encoding="utf-8" standalone="no"?>
<!DOCTYPE svg PUBLIC "-//W3C//DTD SVG 1.1//EN"
  "http://www.w3.org/Graphics/SVG/1.1/DTD/svg11.dtd">
<svg xmlns:xlink="http://www.w3.org/1999/xlink" width="1080pt" height="720pt" viewBox="0 0 1080 720" xmlns="http://www.w3.org/2000/svg" version="1.1">
 <metadata>
  <rdf:RDF xmlns:dc="http://purl.org/dc/elements/1.1/" xmlns:cc="http://creativecommons.org/ns#" xmlns:rdf="http://www.w3.org/1999/02/22-rdf-syntax-ns#">
   <cc:Work>
    <dc:type rdf:resource="http://purl.org/dc/dcmitype/StillImage"/>
    <dc:date>2025-02-17T15:13:40.505866</dc:date>
    <dc:format>image/svg+xml</dc:format>
    <dc:creator>
     <cc:Agent>
      <dc:title>Matplotlib v3.10.0, https://matplotlib.org/</dc:title>
     </cc:Agent>
    </dc:creator>
   </cc:Work>
  </rdf:RDF>
 </metadata>
 <defs>
  <style type="text/css">*{stroke-linejoin: round; stroke-linecap: butt}</style>
 </defs>
 <g id="figure_1">
  <g id="patch_1">
   <path d="M 0 720 
L 1080 720 
L 1080 0 
L 0 0 
z
" style="fill: #ffffff"/>
  </g>
  <g id="axes_1">
   <g id="patch_2">
    <path d="M 135 640.8 
L 972 640.8 
L 972 86.4 
L 135 86.4 
L 135 640.8 
z
" style="fill: none"/>
   </g>
   <g id="line2d_1">
    <path d="M -1 327.421063 
L -0.804636 329.243199 
L 1.966887 369.427238 
L 4.738411 327.763211 
L 7.509934 368.303605 
L 10.281457 352.412692 
L 13.05298 561.750249 
L 15.824503 310.262414 
L 18.596026 295.145523 
L 21.36755 314.267082 
L 24.139073 348.296857 
L 26.910596 341.284154 
L 29.682119 329.221965 
L 32.453642 461.338327 
L 35.225166 374.157413 
L 37.996689 317.423845 
L 40.768212 320.156201 
L 43.539735 451.074435 
L 46.311258 418.468807 
L 49.082781 308.081264 
L 51.854305 438.945363 
L 54.625828 479.291525 
L 57.397351 313.934491 
L 60.168874 328.834664 
L 62.940397 319.689376 
L 65.711921 331.879046 
L 68.483444 336.677818 
L 71.254967 329.496961 
L 74.02649 370.53093 
L 76.798013 360.331504 
L 79.569536 395.599213 
L 82.34106 346.337282 
L 85.112583 448.569995 
L 87.884106 522.732498 
L 90.655629 429.839951 
L 93.427152 427.411595 
L 96.198675 440.672448 
L 98.970199 334.952567 
L 101.741722 351.143339 
L 104.513245 365.479557 
L 107.284768 368.713219 
L 110.056291 446.785185 
L 112.827815 503.02663 
L 115.599338 510.804387 
L 118.370861 423.793788 
L 121.142384 396.318534 
L 123.913907 354.744893 
L 126.68543 339.782812 
L 129.456954 440.574145 
L 132.228477 349.147737 
L 135 349.637626 
L 137.771523 486.171983 
L 140.543046 395.10408 
L 143.31457 512.053244 
L 146.086093 363.489207 
L 148.857616 360.889731 
L 151.629139 358.744278 
L 154.400662 362.563171 
L 157.172185 371.19398 
L 159.943709 357.717761 
L 162.715232 367.241113 
L 165.486755 364.254599 
L 168.258278 385.53545 
L 171.029801 361.106199 
L 173.801325 362.983082 
L 176.572848 365.008205 
L 179.344371 370.319424 
L 182.115894 362.318171 
L 184.887417 355.273968 
L 187.65894 361.676831 
L 190.430464 364.515105 
L 193.201987 371.850207 
L 195.97351 360.146048 
L 198.745033 363.93765 
L 201.516556 356.107587 
L 204.288079 399.081137 
L 207.059603 427.034661 
L 209.831126 377.389058 
L 212.602649 379.216321 
L 215.374172 417.234057 
L 218.145695 383.849605 
L 220.917219 374.916113 
L 223.688742 409.086988 
L 226.460265 364.523788 
L 229.231788 362.681019 
L 232.003311 362.694044 
L 234.774834 363.883068 
L 237.546358 370.23631 
L 240.317881 358.026132 
L 243.089404 364.889117 
L 245.860927 362.941525 
L 248.63245 371.308726 
L 251.403974 501.031364 
L 254.175497 300.016737 
L 256.94702 313.719632 
L 259.718543 371.347961 
L 262.490066 331.205936 
L 265.261589 331.300447 
L 268.033113 345.895548 
L 270.804636 377.55935 
L 273.576159 347.120384 
L 276.347682 482.555913 
L 279.119205 497.077256 
L 281.890728 431.081806 
L 284.662252 425.87479 
L 287.433775 411.706654 
L 290.205298 282.742042 
L 292.976821 291.485194 
L 295.748344 301.324435 
L 298.519868 292.926634 
L 301.291391 334.388992 
L 304.062914 519.018412 
L 306.834437 446.825667 
L 309.60596 501.851337 
L 312.377483 431.786386 
L 315.149007 456.218326 
L 317.92053 321.992012 
L 320.692053 318.547331 
L 323.463576 341.914796 
L 326.235099 381.539279 
L 329.006623 393.896397 
L 331.778146 319.416089 
L 334.549669 319.17095 
L 337.321192 333.454218 
L 340.092715 327.001419 
L 342.864238 289.12543 
L 348.407285 293.917574 
L 351.178808 349.493053 
L 353.950331 371.273144 
L 356.721854 430.650313 
L 359.493377 399.324947 
L 362.264901 520.12075 
L 365.036424 296.675822 
L 367.807947 283.187946 
L 370.57947 288.938297 
L 373.350993 329.683703 
L 376.122517 368.219099 
L 378.89404 516.424161 
L 381.665563 527.57645 
L 384.437086 463.135577 
L 387.208609 441.792345 
L 389.980132 217.493842 
L 392.751656 233.453075 
L 395.523179 265.133243 
L 398.294702 313.296294 
L 401.066225 434.429877 
L 403.837748 506.958367 
L 406.609272 242.052276 
L 409.380795 189.992737 
L 412.152318 252.85792 
L 414.923841 554.710144 
L 417.695364 396.573685 
L 420.466887 551.304041 
L 423.238411 280.835894 
L 426.009934 448.421332 
L 428.781457 294.82362 
L 431.55298 263.655591 
L 434.324503 398.319844 
L 437.096026 256.24396 
L 439.86755 255.729294 
L 442.639073 241.622064 
L 445.410596 455.922346 
L 448.182119 216.347456 
L 450.953642 373.479708 
L 453.725166 517.954518 
L 456.496689 418.316063 
L 459.268212 221.106198 
L 462.039735 257.062048 
L 464.811258 213.219126 
L 467.582781 253.891728 
L 470.354305 261.344532 
L 473.125828 254.852651 
L 478.668874 486.888469 
L 481.440397 234.459017 
L 484.211921 476.133154 
L 486.983444 245.019438 
L 489.754967 156.863137 
L 492.52649 194.683356 
L 495.298013 163.980714 
L 498.069536 176.885422 
L 500.84106 216.649378 
L 503.612583 357.042072 
L 506.384106 208.236863 
L 509.155629 222.928483 
L 511.927152 444.812489 
L 514.698675 362.492146 
L 517.470199 494.78725 
L 520.241722 195.963205 
L 523.013245 152.960898 
L 525.784768 223.010124 
L 528.556291 218.887567 
L 531.327815 185.55799 
L 534.099338 137.790387 
L 536.870861 198.008661 
L 539.642384 179.716275 
L 542.413907 264.608676 
L 545.18543 200.444222 
L 547.956954 197.955508 
L 550.728477 325.161549 
L 553.5 204.162112 
L 556.271523 152.973876 
L 559.043046 111.6 
L 561.81457 119.251054 
L 564.586093 169.938237 
L 567.357616 182.858901 
L 570.129139 187.673997 
L 572.900662 302.400595 
L 575.672185 295.909397 
L 578.443709 229.13898 
L 581.215232 155.700681 
L 583.986755 251.461316 
L 586.758278 140.010849 
L 589.529801 321.314387 
L 592.301325 204.609043 
L 595.072848 615.6 
L 597.844371 615.6 
L 600.615894 298.583364 
L 603.387417 263.250572 
L 606.15894 440.912227 
L 608.930464 407.700353 
L 611.701987 444.017831 
L 614.47351 349.423783 
L 617.245033 158.242032 
L 620.016556 146.544076 
L 622.788079 166.768904 
L 625.559603 595.27735 
L 628.331126 417.143274 
L 631.102649 481.454611 
L 633.874172 228.862432 
L 636.645695 180.387746 
L 639.417219 236.840983 
L 642.188742 169.98973 
L 644.960265 161.813675 
L 647.731788 387.758877 
L 650.503311 280.578396 
L 653.274834 244.919716 
L 656.046358 261.309868 
L 658.817881 189.564123 
L 661.589404 127.273922 
L 664.360927 146.085255 
L 667.13245 346.247438 
L 669.903974 280.69168 
L 672.675497 458.833128 
L 675.44702 367.338515 
L 678.218543 255.411126 
L 680.990066 232.876878 
L 683.761589 243.409365 
L 686.533113 202.440536 
L 689.304636 331.179697 
L 692.076159 419.674565 
L 694.847682 444.900889 
L 697.619205 362.605901 
L 700.390728 298.107368 
L 703.162252 353.091965 
L 705.933775 364.723983 
L 708.705298 394.737669 
L 711.476821 447.350975 
L 714.248344 350.190505 
L 717.019868 308.406386 
L 719.791391 295.880865 
L 722.562914 204.597905 
L 725.334437 178.849433 
L 728.10596 196.026374 
L 730.877483 199.64293 
L 733.649007 243.629504 
L 736.42053 386.836808 
L 739.192053 275.392583 
L 741.963576 323.25045 
L 744.735099 279.80142 
L 747.506623 299.852464 
L 750.278146 183.696692 
L 753.049669 202.296701 
L 755.821192 148.628763 
L 758.592715 339.360018 
L 761.364238 250.311521 
L 764.135762 346.829166 
L 766.907285 219.333697 
L 769.678808 289.092723 
L 772.450331 335.858237 
L 775.221854 330.430365 
L 777.993377 327.388051 
L 780.764901 292.057631 
L 783.536424 323.342789 
L 786.307947 388.688999 
L 789.07947 216.710808 
L 791.850993 199.984422 
L 794.622517 290.08457 
L 797.39404 388.289557 
L 800.165563 359.247619 
L 802.937086 336.333515 
L 805.708609 303.188865 
L 808.480132 245.752686 
L 811.251656 282.733407 
L 814.023179 362.648263 
L 816.794702 369.894212 
L 819.566225 400.323049 
L 822.337748 196.635269 
L 825.109272 256.67975 
L 827.880795 267.690794 
L 830.652318 309.110063 
L 833.423841 310.623314 
L 836.195364 265.445949 
L 838.966887 281.266452 
L 841.738411 294.606859 
L 844.509934 370.404375 
L 847.281457 204.408245 
L 850.05298 193.289535 
L 852.824503 202.714839 
L 855.596026 426.466312 
L 858.36755 368.702925 
L 861.139073 227.125268 
L 863.910596 281.757632 
L 866.682119 215.522235 
L 869.453642 331.30544 
L 872.225166 308.328943 
L 874.996689 405.355401 
L 877.768212 333.633047 
L 880.539735 283.241678 
L 883.311258 336.781486 
L 886.082781 239.672039 
L 888.854305 249.339582 
L 891.625828 240.564749 
L 894.397351 197.046755 
L 897.168874 213.137257 
L 899.940397 247.096136 
L 902.711921 220.486426 
L 905.483444 236.367685 
L 908.254967 233.588707 
L 911.02649 273.541505 
L 913.798013 243.166765 
L 916.569536 252.410432 
L 919.34106 250.041739 
L 922.112583 290.801807 
L 924.884106 284.074172 
L 927.655629 272.477276 
L 930.427152 277.925671 
L 933.198675 248.960962 
L 935.970199 242.975032 
L 938.741722 262.145984 
L 941.513245 491.211574 
L 944.284768 273.712543 
L 947.056291 298.2602 
L 949.827815 546.232094 
L 952.599338 350.538823 
L 955.370861 474.126066 
L 958.142384 251.574934 
L 960.913907 260.381299 
L 963.68543 374.85124 
L 966.456954 321.856997 
L 969.228477 476.183834 
L 972 330.117574 
L 972 330.117574 
" clip-path="url(#pb421f15e86)" style="fill: none; stroke: #4c72b0; stroke-width: 1.5; stroke-linecap: round"/>
   </g>
   <g id="line2d_2">
    <path d="M -1 316.512722 
L -0.804636 319.225257 
L 1.966887 383.861547 
L 4.738411 327.629542 
L 7.509934 370.377011 
L 10.281457 354.327045 
L 13.05298 544.221571 
L 15.824503 314.963681 
L 18.596026 289.261503 
L 21.36755 306.703458 
L 24.139073 348.489152 
L 26.910596 338.143237 
L 29.682119 326.853811 
L 32.453642 463.088454 
L 35.225166 354.953841 
L 37.996689 301.545926 
L 40.768212 308.03491 
L 43.539735 438.45586 
L 46.311258 400.668311 
L 49.082781 303.504492 
L 51.854305 454.823868 
L 54.625828 473.943304 
L 57.397351 316.15459 
L 60.168874 329.575312 
L 62.940397 317.426971 
L 65.711921 325.003751 
L 68.483444 329.120946 
L 71.254967 325.554879 
L 74.02649 370.481979 
L 76.798013 346.630717 
L 79.569536 381.735155 
L 82.34106 340.883155 
L 85.112583 417.793148 
L 87.884106 500.732415 
L 90.655629 411.276174 
L 93.427152 413.744728 
L 96.198675 421.888143 
L 98.970199 326.21078 
L 101.741722 337.89253 
L 104.513245 362.600124 
L 107.284768 357.392451 
L 110.056291 427.724926 
L 112.827815 484.88051 
L 115.599338 488.010774 
L 118.370861 414.65607 
L 121.142384 382.809341 
L 123.913907 347.9507 
L 126.68543 323.236874 
L 129.456954 439.951915 
L 132.228477 338.110597 
L 135 332.673986 
L 137.771523 467.860669 
L 140.543046 388.439311 
L 143.31457 503.398242 
L 146.086093 355.014057 
L 148.857616 353.967278 
L 151.629139 348.244507 
L 154.400662 351.589866 
L 157.172185 367.019298 
L 159.943709 357.723988 
L 162.715232 360.116705 
L 165.486755 358.802654 
L 168.258278 387.569468 
L 171.029801 353.925308 
L 173.801325 356.632472 
L 176.572848 358.345635 
L 179.344371 358.282951 
L 182.115894 351.978809 
L 184.887417 350.967032 
L 187.65894 362.159368 
L 190.430464 358.32124 
L 193.201987 362.188528 
L 195.97351 353.131656 
L 198.745033 359.909409 
L 201.516556 351.448908 
L 204.288079 404.249668 
L 207.059603 420.012607 
L 209.831126 369.503002 
L 212.602649 373.904504 
L 215.374172 408.723452 
L 218.145695 371.882909 
L 220.917219 361.350754 
L 223.688742 349.087131 
L 226.460265 351.476767 
L 229.231788 350.803392 
L 232.003311 351.404838 
L 234.774834 352.796752 
L 237.546358 362.720143 
L 240.317881 352.437854 
L 243.089404 349.486088 
L 245.860927 349.562696 
L 248.63245 363.678134 
L 251.403974 503.109063 
L 254.175497 302.408008 
L 256.94702 309.624049 
L 259.718543 358.536443 
L 262.490066 316.622251 
L 265.261589 317.673384 
L 270.804636 371.922767 
L 273.576159 335.030411 
L 276.347682 477.066932 
L 279.119205 482.552665 
L 281.890728 438.511057 
L 284.662252 396.967577 
L 287.433775 399.988674 
L 290.205298 281.979412 
L 292.976821 286.874963 
L 295.748344 292.595192 
L 298.519868 288.016898 
L 301.291391 325.970384 
L 304.062914 516.525919 
L 306.834437 447.877919 
L 309.60596 472.132506 
L 312.377483 426.410675 
L 315.149007 462.043447 
L 317.92053 322.636028 
L 320.692053 326.782753 
L 323.463576 350.819113 
L 326.235099 404.377818 
L 329.006623 412.1658 
L 331.778146 324.916244 
L 334.549669 321.073209 
L 337.321192 343.822052 
L 340.092715 353.310407 
L 342.864238 270.691969 
L 345.635762 268.867416 
L 348.407285 277.843671 
L 351.178808 324.405158 
L 353.950331 357.107392 
L 356.721854 424.615507 
L 359.493377 413.736882 
L 362.264901 496.937207 
L 365.036424 257.902109 
L 367.807947 251.942514 
L 370.57947 257.386115 
L 373.350993 311.893464 
L 376.122517 362.118939 
L 378.89404 508.711716 
L 381.665563 505.848368 
L 384.437086 474.618464 
L 387.208609 432.458932 
L 389.980132 222.259408 
L 392.751656 228.891607 
L 395.523179 244.904938 
L 398.294702 303.296225 
L 403.837748 514.800705 
L 406.609272 209.260297 
L 409.380795 179.399554 
L 412.152318 236.897659 
L 414.923841 541.104765 
L 417.695364 392.717624 
L 420.466887 542.06333 
L 423.238411 250.788525 
L 426.009934 484.635557 
L 428.781457 287.09547 
L 431.55298 267.909196 
L 434.324503 431.877244 
L 437.096026 238.485813 
L 439.86755 247.749139 
L 442.639073 224.077641 
L 445.410596 441.110121 
L 448.182119 213.000105 
L 450.953642 386.076167 
L 453.725166 502.765526 
L 456.496689 408.773256 
L 459.268212 213.129838 
L 462.039735 246.015531 
L 464.811258 197.193399 
L 467.582781 271.872275 
L 470.354305 246.898298 
L 473.125828 258.746216 
L 475.897351 395.855529 
L 478.668874 462.824171 
L 481.440397 240.050001 
L 484.211921 453.426148 
L 486.983444 231.894928 
L 489.754967 150.602297 
L 492.52649 201.677568 
L 495.298013 160.19288 
L 498.069536 171.462006 
L 500.84106 202.746305 
L 503.612583 341.042749 
L 506.384106 211.399654 
L 509.155629 230.089363 
L 511.927152 429.062145 
L 514.698675 383.569366 
L 517.470199 505.861526 
L 520.241722 249.829521 
L 523.013245 188.574688 
L 525.784768 232.081382 
L 528.556291 251.013439 
L 531.327815 204.033907 
L 534.099338 143.970497 
L 536.870861 208.39987 
L 539.642384 178.900022 
L 542.413907 303.261171 
L 545.18543 194.683646 
L 547.956954 193.307396 
L 550.728477 273.931817 
L 553.5 213.02818 
L 556.271523 181.488295 
L 559.043046 124.360501 
L 561.81457 133.964836 
L 564.586093 190.543311 
L 567.357616 172.111841 
L 570.129139 189.823659 
L 572.900662 312.057737 
L 575.672185 286.598763 
L 578.443709 277.26418 
L 581.215232 176.060871 
L 583.986755 297.374207 
L 586.758278 158.069644 
L 589.529801 385.133771 
L 592.301325 185.302913 
L 595.072848 544.285964 
L 597.844371 544.285964 
L 600.615894 263.952605 
L 603.387417 262.170636 
L 606.15894 463.358411 
L 608.930464 416.825042 
L 611.701987 443.368417 
L 614.47351 301.356647 
L 617.245033 148.331124 
L 620.016556 162.104526 
L 622.788079 168.881922 
L 625.559603 439.339684 
L 628.331126 416.630842 
L 631.102649 464.163972 
L 633.874172 237.198068 
L 636.645695 194.179493 
L 639.417219 261.044008 
L 642.188742 208.368685 
L 644.960265 190.602686 
L 647.731788 425.737015 
L 650.503311 301.321896 
L 653.274834 276.518835 
L 656.046358 268.039357 
L 658.817881 216.341212 
L 661.589404 145.581563 
L 664.360927 173.733206 
L 667.13245 355.430134 
L 669.903974 283.104413 
L 672.675497 450.561147 
L 675.44702 360.631729 
L 678.218543 262.953143 
L 680.990066 232.959756 
L 683.761589 236.950043 
L 686.533113 206.113405 
L 689.304636 362.75391 
L 692.076159 421.141787 
L 694.847682 466.094278 
L 697.619205 390.288272 
L 700.390728 331.878782 
L 703.162252 392.531781 
L 705.933775 405.352803 
L 708.705298 401.530093 
L 711.476821 404.484683 
L 714.248344 332.648108 
L 717.019868 311.409585 
L 719.791391 286.390625 
L 722.562914 199.738675 
L 725.334437 170.663492 
L 728.10596 143.185194 
L 730.877483 181.969994 
L 733.649007 210.94797 
L 736.42053 373.65944 
L 739.192053 287.373396 
L 741.963576 283.916665 
L 744.735099 319.881473 
L 747.506623 265.569462 
L 750.278146 177.708971 
L 753.049669 228.430393 
L 755.821192 148.879758 
L 758.592715 332.861154 
L 761.364238 243.11518 
L 764.135762 349.231044 
L 766.907285 224.204778 
L 769.678808 286.384177 
L 772.450331 318.082755 
L 775.221854 328.466032 
L 777.993377 321.314044 
L 780.764901 302.636718 
L 783.536424 343.957178 
L 786.307947 407.328542 
L 789.07947 184.747574 
L 791.850993 187.462526 
L 794.622517 305.651052 
L 797.39404 382.335061 
L 800.165563 341.697761 
L 802.937086 325.566263 
L 805.708609 298.043541 
L 808.480132 274.422019 
L 811.251656 265.58544 
L 814.023179 329.871185 
L 816.794702 355.585773 
L 819.566225 388.698035 
L 822.337748 197.415518 
L 825.109272 263.743212 
L 827.880795 237.393453 
L 830.652318 337.067738 
L 833.423841 280.527867 
L 836.195364 291.019877 
L 838.966887 277.138997 
L 841.738411 314.362292 
L 844.509934 379.65216 
L 847.281457 182.962608 
L 850.05298 160.11807 
L 852.824503 171.296494 
L 855.596026 396.32864 
L 858.36755 325.499231 
L 861.139073 236.149903 
L 863.910596 255.831628 
L 866.682119 180.057892 
L 869.453642 325.640919 
L 872.225166 316.937982 
L 874.996689 394.095215 
L 877.768212 338.403588 
L 880.539735 277.178856 
L 883.311258 289.401023 
L 886.082781 229.022139 
L 888.854305 233.775018 
L 891.625828 230.588723 
L 894.397351 161.047487 
L 897.168874 166.819543 
L 899.940397 225.995022 
L 902.711921 167.386267 
L 905.483444 204.514893 
L 908.254967 182.360335 
L 911.02649 268.56467 
L 913.798013 197.988176 
L 916.569536 226.297742 
L 919.34106 221.996147 
L 922.112583 276.474964 
L 924.884106 258.74265 
L 927.655629 238.224692 
L 930.427152 262.193033 
L 933.198675 214.722643 
L 935.970199 222.424777 
L 938.741722 241.875995 
L 941.513245 402.33671 
L 944.284768 219.780896 
L 947.056291 278.722815 
L 949.827815 544.176528 
L 952.599338 330.64321 
L 955.370861 472.66777 
L 958.142384 209.42695 
L 960.913907 211.89482 
L 963.68543 346.911511 
L 966.456954 297.409329 
L 969.228477 452.396628 
L 972 297.956423 
L 972 297.956423 
" clip-path="url(#pb421f15e86)" style="fill: none; stroke: #dd8452; stroke-width: 1.5; stroke-linecap: round"/>
   </g>
   <g id="patch_3">
    <path d="M 135 640.8 
L 135 86.4 
" style="fill: none; stroke: #d3d3d3; stroke-width: 1.25; stroke-linejoin: miter; stroke-linecap: square"/>
   </g>
   <g id="patch_4">
    <path d="M 135 640.8 
L 972 640.8 
" style="fill: none; stroke: #d3d3d3; stroke-width: 1.25; stroke-linejoin: miter; stroke-linecap: square"/>
   </g>
   <g id="matplotlib.axis_1">
    <g id="xtick_1">
     <g id="line2d_3">
      <defs>
       <path id="mfc5dd10c8a" d="M 0 0 
L 0 6 
" style="stroke: #000000; stroke-width: 1.25"/>
      </defs>
      <g>
       <use xlink:href="#mfc5dd10c8a" x="184.887417" y="640.8" style="stroke: #000000; stroke-width: 1.25"/>
      </g>
     </g>
     <g id="text_1">
      <!-- 2022-07-05 -->
      <g transform="translate(164.432033 701.413545) rotate(-45) scale(0.11 -0.11)">
       <defs>
        <path id="DejaVuSans-32" d="M 1228 531 
L 3431 531 
L 3431 0 
L 469 0 
L 469 531 
Q 828 903 1448 1529 
Q 2069 2156 2228 2338 
Q 2531 2678 2651 2914 
Q 2772 3150 2772 3378 
Q 2772 3750 2511 3984 
Q 2250 4219 1831 4219 
Q 1534 4219 1204 4116 
Q 875 4013 500 3803 
L 500 4441 
Q 881 4594 1212 4672 
Q 1544 4750 1819 4750 
Q 2544 4750 2975 4387 
Q 3406 4025 3406 3419 
Q 3406 3131 3298 2873 
Q 3191 2616 2906 2266 
Q 2828 2175 2409 1742 
Q 1991 1309 1228 531 
z
" transform="scale(0.015625)"/>
        <path id="DejaVuSans-30" d="M 2034 4250 
Q 1547 4250 1301 3770 
Q 1056 3291 1056 2328 
Q 1056 1369 1301 889 
Q 1547 409 2034 409 
Q 2525 409 2770 889 
Q 3016 1369 3016 2328 
Q 3016 3291 2770 3770 
Q 2525 4250 2034 4250 
z
M 2034 4750 
Q 2819 4750 3233 4129 
Q 3647 3509 3647 2328 
Q 3647 1150 3233 529 
Q 2819 -91 2034 -91 
Q 1250 -91 836 529 
Q 422 1150 422 2328 
Q 422 3509 836 4129 
Q 1250 4750 2034 4750 
z
" transform="scale(0.015625)"/>
        <path id="DejaVuSans-2d" d="M 313 2009 
L 1997 2009 
L 1997 1497 
L 313 1497 
L 313 2009 
z
" transform="scale(0.015625)"/>
        <path id="DejaVuSans-37" d="M 525 4666 
L 3525 4666 
L 3525 4397 
L 1831 0 
L 1172 0 
L 2766 4134 
L 525 4134 
L 525 4666 
z
" transform="scale(0.015625)"/>
        <path id="DejaVuSans-35" d="M 691 4666 
L 3169 4666 
L 3169 4134 
L 1269 4134 
L 1269 2991 
Q 1406 3038 1543 3061 
Q 1681 3084 1819 3084 
Q 2600 3084 3056 2656 
Q 3513 2228 3513 1497 
Q 3513 744 3044 326 
Q 2575 -91 1722 -91 
Q 1428 -91 1123 -41 
Q 819 9 494 109 
L 494 744 
Q 775 591 1075 516 
Q 1375 441 1709 441 
Q 2250 441 2565 725 
Q 2881 1009 2881 1497 
Q 2881 1984 2565 2268 
Q 2250 2553 1709 2553 
Q 1456 2553 1204 2497 
Q 953 2441 691 2322 
L 691 4666 
z
" transform="scale(0.015625)"/>
       </defs>
       <use xlink:href="#DejaVuSans-32"/>
       <use xlink:href="#DejaVuSans-30" transform="translate(63.623047 0)"/>
       <use xlink:href="#DejaVuSans-32" transform="translate(127.246094 0)"/>
       <use xlink:href="#DejaVuSans-32" transform="translate(190.869141 0)"/>
       <use xlink:href="#DejaVuSans-2d" transform="translate(254.492188 0)"/>
       <use xlink:href="#DejaVuSans-30" transform="translate(290.576172 0)"/>
       <use xlink:href="#DejaVuSans-37" transform="translate(354.199219 0)"/>
       <use xlink:href="#DejaVuSans-2d" transform="translate(417.822266 0)"/>
       <use xlink:href="#DejaVuSans-30" transform="translate(453.90625 0)"/>
       <use xlink:href="#DejaVuSans-35" transform="translate(517.529297 0)"/>
      </g>
     </g>
    </g>
    <g id="xtick_2">
     <g id="line2d_4">
      <g>
       <use xlink:href="#mfc5dd10c8a" x="240.317881" y="640.8" style="stroke: #000000; stroke-width: 1.25"/>
      </g>
     </g>
     <g id="text_2">
      <!-- 2022-07-25 -->
      <g transform="translate(219.862497 701.413545) rotate(-45) scale(0.11 -0.11)">
       <use xlink:href="#DejaVuSans-32"/>
       <use xlink:href="#DejaVuSans-30" transform="translate(63.623047 0)"/>
       <use xlink:href="#DejaVuSans-32" transform="translate(127.246094 0)"/>
       <use xlink:href="#DejaVuSans-32" transform="translate(190.869141 0)"/>
       <use xlink:href="#DejaVuSans-2d" transform="translate(254.492188 0)"/>
       <use xlink:href="#DejaVuSans-30" transform="translate(290.576172 0)"/>
       <use xlink:href="#DejaVuSans-37" transform="translate(354.199219 0)"/>
       <use xlink:href="#DejaVuSans-2d" transform="translate(417.822266 0)"/>
       <use xlink:href="#DejaVuSans-32" transform="translate(453.90625 0)"/>
       <use xlink:href="#DejaVuSans-35" transform="translate(517.529297 0)"/>
      </g>
     </g>
    </g>
    <g id="xtick_3">
     <g id="line2d_5">
      <g>
       <use xlink:href="#mfc5dd10c8a" x="295.748344" y="640.8" style="stroke: #000000; stroke-width: 1.25"/>
      </g>
     </g>
     <g id="text_3">
      <!-- 2022-08-14 -->
      <g transform="translate(275.292961 701.413545) rotate(-45) scale(0.11 -0.11)">
       <defs>
        <path id="DejaVuSans-38" d="M 2034 2216 
Q 1584 2216 1326 1975 
Q 1069 1734 1069 1313 
Q 1069 891 1326 650 
Q 1584 409 2034 409 
Q 2484 409 2743 651 
Q 3003 894 3003 1313 
Q 3003 1734 2745 1975 
Q 2488 2216 2034 2216 
z
M 1403 2484 
Q 997 2584 770 2862 
Q 544 3141 544 3541 
Q 544 4100 942 4425 
Q 1341 4750 2034 4750 
Q 2731 4750 3128 4425 
Q 3525 4100 3525 3541 
Q 3525 3141 3298 2862 
Q 3072 2584 2669 2484 
Q 3125 2378 3379 2068 
Q 3634 1759 3634 1313 
Q 3634 634 3220 271 
Q 2806 -91 2034 -91 
Q 1263 -91 848 271 
Q 434 634 434 1313 
Q 434 1759 690 2068 
Q 947 2378 1403 2484 
z
M 1172 3481 
Q 1172 3119 1398 2916 
Q 1625 2713 2034 2713 
Q 2441 2713 2670 2916 
Q 2900 3119 2900 3481 
Q 2900 3844 2670 4047 
Q 2441 4250 2034 4250 
Q 1625 4250 1398 4047 
Q 1172 3844 1172 3481 
z
" transform="scale(0.015625)"/>
        <path id="DejaVuSans-31" d="M 794 531 
L 1825 531 
L 1825 4091 
L 703 3866 
L 703 4441 
L 1819 4666 
L 2450 4666 
L 2450 531 
L 3481 531 
L 3481 0 
L 794 0 
L 794 531 
z
" transform="scale(0.015625)"/>
        <path id="DejaVuSans-34" d="M 2419 4116 
L 825 1625 
L 2419 1625 
L 2419 4116 
z
M 2253 4666 
L 3047 4666 
L 3047 1625 
L 3713 1625 
L 3713 1100 
L 3047 1100 
L 3047 0 
L 2419 0 
L 2419 1100 
L 313 1100 
L 313 1709 
L 2253 4666 
z
" transform="scale(0.015625)"/>
       </defs>
       <use xlink:href="#DejaVuSans-32"/>
       <use xlink:href="#DejaVuSans-30" transform="translate(63.623047 0)"/>
       <use xlink:href="#DejaVuSans-32" transform="translate(127.246094 0)"/>
       <use xlink:href="#DejaVuSans-32" transform="translate(190.869141 0)"/>
       <use xlink:href="#DejaVuSans-2d" transform="translate(254.492188 0)"/>
       <use xlink:href="#DejaVuSans-30" transform="translate(290.576172 0)"/>
       <use xlink:href="#DejaVuSans-38" transform="translate(354.199219 0)"/>
       <use xlink:href="#DejaVuSans-2d" transform="translate(417.822266 0)"/>
       <use xlink:href="#DejaVuSans-31" transform="translate(453.90625 0)"/>
       <use xlink:href="#DejaVuSans-34" transform="translate(517.529297 0)"/>
      </g>
     </g>
    </g>
    <g id="xtick_4">
     <g id="line2d_6">
      <g>
       <use xlink:href="#mfc5dd10c8a" x="351.178808" y="640.8" style="stroke: #000000; stroke-width: 1.25"/>
      </g>
     </g>
     <g id="text_4">
      <!-- 2022-09-03 -->
      <g transform="translate(330.723424 701.413545) rotate(-45) scale(0.11 -0.11)">
       <defs>
        <path id="DejaVuSans-39" d="M 703 97 
L 703 672 
Q 941 559 1184 500 
Q 1428 441 1663 441 
Q 2288 441 2617 861 
Q 2947 1281 2994 2138 
Q 2813 1869 2534 1725 
Q 2256 1581 1919 1581 
Q 1219 1581 811 2004 
Q 403 2428 403 3163 
Q 403 3881 828 4315 
Q 1253 4750 1959 4750 
Q 2769 4750 3195 4129 
Q 3622 3509 3622 2328 
Q 3622 1225 3098 567 
Q 2575 -91 1691 -91 
Q 1453 -91 1209 -44 
Q 966 3 703 97 
z
M 1959 2075 
Q 2384 2075 2632 2365 
Q 2881 2656 2881 3163 
Q 2881 3666 2632 3958 
Q 2384 4250 1959 4250 
Q 1534 4250 1286 3958 
Q 1038 3666 1038 3163 
Q 1038 2656 1286 2365 
Q 1534 2075 1959 2075 
z
" transform="scale(0.015625)"/>
        <path id="DejaVuSans-33" d="M 2597 2516 
Q 3050 2419 3304 2112 
Q 3559 1806 3559 1356 
Q 3559 666 3084 287 
Q 2609 -91 1734 -91 
Q 1441 -91 1130 -33 
Q 819 25 488 141 
L 488 750 
Q 750 597 1062 519 
Q 1375 441 1716 441 
Q 2309 441 2620 675 
Q 2931 909 2931 1356 
Q 2931 1769 2642 2001 
Q 2353 2234 1838 2234 
L 1294 2234 
L 1294 2753 
L 1863 2753 
Q 2328 2753 2575 2939 
Q 2822 3125 2822 3475 
Q 2822 3834 2567 4026 
Q 2313 4219 1838 4219 
Q 1578 4219 1281 4162 
Q 984 4106 628 3988 
L 628 4550 
Q 988 4650 1302 4700 
Q 1616 4750 1894 4750 
Q 2613 4750 3031 4423 
Q 3450 4097 3450 3541 
Q 3450 3153 3228 2886 
Q 3006 2619 2597 2516 
z
" transform="scale(0.015625)"/>
       </defs>
       <use xlink:href="#DejaVuSans-32"/>
       <use xlink:href="#DejaVuSans-30" transform="translate(63.623047 0)"/>
       <use xlink:href="#DejaVuSans-32" transform="translate(127.246094 0)"/>
       <use xlink:href="#DejaVuSans-32" transform="translate(190.869141 0)"/>
       <use xlink:href="#DejaVuSans-2d" transform="translate(254.492188 0)"/>
       <use xlink:href="#DejaVuSans-30" transform="translate(290.576172 0)"/>
       <use xlink:href="#DejaVuSans-39" transform="translate(354.199219 0)"/>
       <use xlink:href="#DejaVuSans-2d" transform="translate(417.822266 0)"/>
       <use xlink:href="#DejaVuSans-30" transform="translate(453.90625 0)"/>
       <use xlink:href="#DejaVuSans-33" transform="translate(517.529297 0)"/>
      </g>
     </g>
    </g>
    <g id="xtick_5">
     <g id="line2d_7">
      <g>
       <use xlink:href="#mfc5dd10c8a" x="406.609272" y="640.8" style="stroke: #000000; stroke-width: 1.25"/>
      </g>
     </g>
     <g id="text_5">
      <!-- 2022-09-23 -->
      <g transform="translate(386.153888 701.413545) rotate(-45) scale(0.11 -0.11)">
       <use xlink:href="#DejaVuSans-32"/>
       <use xlink:href="#DejaVuSans-30" transform="translate(63.623047 0)"/>
       <use xlink:href="#DejaVuSans-32" transform="translate(127.246094 0)"/>
       <use xlink:href="#DejaVuSans-32" transform="translate(190.869141 0)"/>
       <use xlink:href="#DejaVuSans-2d" transform="translate(254.492188 0)"/>
       <use xlink:href="#DejaVuSans-30" transform="translate(290.576172 0)"/>
       <use xlink:href="#DejaVuSans-39" transform="translate(354.199219 0)"/>
       <use xlink:href="#DejaVuSans-2d" transform="translate(417.822266 0)"/>
       <use xlink:href="#DejaVuSans-32" transform="translate(453.90625 0)"/>
       <use xlink:href="#DejaVuSans-33" transform="translate(517.529297 0)"/>
      </g>
     </g>
    </g>
    <g id="xtick_6">
     <g id="line2d_8">
      <g>
       <use xlink:href="#mfc5dd10c8a" x="462.039735" y="640.8" style="stroke: #000000; stroke-width: 1.25"/>
      </g>
     </g>
     <g id="text_6">
      <!-- 2022-10-13 -->
      <g transform="translate(441.584351 701.413545) rotate(-45) scale(0.11 -0.11)">
       <use xlink:href="#DejaVuSans-32"/>
       <use xlink:href="#DejaVuSans-30" transform="translate(63.623047 0)"/>
       <use xlink:href="#DejaVuSans-32" transform="translate(127.246094 0)"/>
       <use xlink:href="#DejaVuSans-32" transform="translate(190.869141 0)"/>
       <use xlink:href="#DejaVuSans-2d" transform="translate(254.492188 0)"/>
       <use xlink:href="#DejaVuSans-31" transform="translate(290.576172 0)"/>
       <use xlink:href="#DejaVuSans-30" transform="translate(354.199219 0)"/>
       <use xlink:href="#DejaVuSans-2d" transform="translate(417.822266 0)"/>
       <use xlink:href="#DejaVuSans-31" transform="translate(453.90625 0)"/>
       <use xlink:href="#DejaVuSans-33" transform="translate(517.529297 0)"/>
      </g>
     </g>
    </g>
    <g id="xtick_7">
     <g id="line2d_9">
      <g>
       <use xlink:href="#mfc5dd10c8a" x="517.470199" y="640.8" style="stroke: #000000; stroke-width: 1.25"/>
      </g>
     </g>
     <g id="text_7">
      <!-- 2022-11-02 -->
      <g transform="translate(497.014815 701.413545) rotate(-45) scale(0.11 -0.11)">
       <use xlink:href="#DejaVuSans-32"/>
       <use xlink:href="#DejaVuSans-30" transform="translate(63.623047 0)"/>
       <use xlink:href="#DejaVuSans-32" transform="translate(127.246094 0)"/>
       <use xlink:href="#DejaVuSans-32" transform="translate(190.869141 0)"/>
       <use xlink:href="#DejaVuSans-2d" transform="translate(254.492188 0)"/>
       <use xlink:href="#DejaVuSans-31" transform="translate(290.576172 0)"/>
       <use xlink:href="#DejaVuSans-31" transform="translate(354.199219 0)"/>
       <use xlink:href="#DejaVuSans-2d" transform="translate(417.822266 0)"/>
       <use xlink:href="#DejaVuSans-30" transform="translate(453.90625 0)"/>
       <use xlink:href="#DejaVuSans-32" transform="translate(517.529297 0)"/>
      </g>
     </g>
    </g>
    <g id="xtick_8">
     <g id="line2d_10">
      <g>
       <use xlink:href="#mfc5dd10c8a" x="572.900662" y="640.8" style="stroke: #000000; stroke-width: 1.25"/>
      </g>
     </g>
     <g id="text_8">
      <!-- 2022-11-22 -->
      <g transform="translate(552.445278 701.413545) rotate(-45) scale(0.11 -0.11)">
       <use xlink:href="#DejaVuSans-32"/>
       <use xlink:href="#DejaVuSans-30" transform="translate(63.623047 0)"/>
       <use xlink:href="#DejaVuSans-32" transform="translate(127.246094 0)"/>
       <use xlink:href="#DejaVuSans-32" transform="translate(190.869141 0)"/>
       <use xlink:href="#DejaVuSans-2d" transform="translate(254.492188 0)"/>
       <use xlink:href="#DejaVuSans-31" transform="translate(290.576172 0)"/>
       <use xlink:href="#DejaVuSans-31" transform="translate(354.199219 0)"/>
       <use xlink:href="#DejaVuSans-2d" transform="translate(417.822266 0)"/>
       <use xlink:href="#DejaVuSans-32" transform="translate(453.90625 0)"/>
       <use xlink:href="#DejaVuSans-32" transform="translate(517.529297 0)"/>
      </g>
     </g>
    </g>
    <g id="xtick_9">
     <g id="line2d_11">
      <g>
       <use xlink:href="#mfc5dd10c8a" x="628.331126" y="640.8" style="stroke: #000000; stroke-width: 1.25"/>
      </g>
     </g>
     <g id="text_9">
      <!-- 2022-12-12 -->
      <g transform="translate(607.875742 701.413545) rotate(-45) scale(0.11 -0.11)">
       <use xlink:href="#DejaVuSans-32"/>
       <use xlink:href="#DejaVuSans-30" transform="translate(63.623047 0)"/>
       <use xlink:href="#DejaVuSans-32" transform="translate(127.246094 0)"/>
       <use xlink:href="#DejaVuSans-32" transform="translate(190.869141 0)"/>
       <use xlink:href="#DejaVuSans-2d" transform="translate(254.492188 0)"/>
       <use xlink:href="#DejaVuSans-31" transform="translate(290.576172 0)"/>
       <use xlink:href="#DejaVuSans-32" transform="translate(354.199219 0)"/>
       <use xlink:href="#DejaVuSans-2d" transform="translate(417.822266 0)"/>
       <use xlink:href="#DejaVuSans-31" transform="translate(453.90625 0)"/>
       <use xlink:href="#DejaVuSans-32" transform="translate(517.529297 0)"/>
      </g>
     </g>
    </g>
    <g id="xtick_10">
     <g id="line2d_12">
      <g>
       <use xlink:href="#mfc5dd10c8a" x="683.761589" y="640.8" style="stroke: #000000; stroke-width: 1.25"/>
      </g>
     </g>
     <g id="text_10">
      <!-- 2023-01-01 -->
      <g transform="translate(663.306206 701.413545) rotate(-45) scale(0.11 -0.11)">
       <use xlink:href="#DejaVuSans-32"/>
       <use xlink:href="#DejaVuSans-30" transform="translate(63.623047 0)"/>
       <use xlink:href="#DejaVuSans-32" transform="translate(127.246094 0)"/>
       <use xlink:href="#DejaVuSans-33" transform="translate(190.869141 0)"/>
       <use xlink:href="#DejaVuSans-2d" transform="translate(254.492188 0)"/>
       <use xlink:href="#DejaVuSans-30" transform="translate(290.576172 0)"/>
       <use xlink:href="#DejaVuSans-31" transform="translate(354.199219 0)"/>
       <use xlink:href="#DejaVuSans-2d" transform="translate(417.822266 0)"/>
       <use xlink:href="#DejaVuSans-30" transform="translate(453.90625 0)"/>
       <use xlink:href="#DejaVuSans-31" transform="translate(517.529297 0)"/>
      </g>
     </g>
    </g>
    <g id="xtick_11">
     <g id="line2d_13">
      <g>
       <use xlink:href="#mfc5dd10c8a" x="739.192053" y="640.8" style="stroke: #000000; stroke-width: 1.25"/>
      </g>
     </g>
     <g id="text_11">
      <!-- 2023-01-21 -->
      <g transform="translate(718.736669 701.413545) rotate(-45) scale(0.11 -0.11)">
       <use xlink:href="#DejaVuSans-32"/>
       <use xlink:href="#DejaVuSans-30" transform="translate(63.623047 0)"/>
       <use xlink:href="#DejaVuSans-32" transform="translate(127.246094 0)"/>
       <use xlink:href="#DejaVuSans-33" transform="translate(190.869141 0)"/>
       <use xlink:href="#DejaVuSans-2d" transform="translate(254.492188 0)"/>
       <use xlink:href="#DejaVuSans-30" transform="translate(290.576172 0)"/>
       <use xlink:href="#DejaVuSans-31" transform="translate(354.199219 0)"/>
       <use xlink:href="#DejaVuSans-2d" transform="translate(417.822266 0)"/>
       <use xlink:href="#DejaVuSans-32" transform="translate(453.90625 0)"/>
       <use xlink:href="#DejaVuSans-31" transform="translate(517.529297 0)"/>
      </g>
     </g>
    </g>
    <g id="xtick_12">
     <g id="line2d_14">
      <g>
       <use xlink:href="#mfc5dd10c8a" x="794.622517" y="640.8" style="stroke: #000000; stroke-width: 1.25"/>
      </g>
     </g>
     <g id="text_12">
      <!-- 2023-02-10 -->
      <g transform="translate(774.167133 701.413545) rotate(-45) scale(0.11 -0.11)">
       <use xlink:href="#DejaVuSans-32"/>
       <use xlink:href="#DejaVuSans-30" transform="translate(63.623047 0)"/>
       <use xlink:href="#DejaVuSans-32" transform="translate(127.246094 0)"/>
       <use xlink:href="#DejaVuSans-33" transform="translate(190.869141 0)"/>
       <use xlink:href="#DejaVuSans-2d" transform="translate(254.492188 0)"/>
       <use xlink:href="#DejaVuSans-30" transform="translate(290.576172 0)"/>
       <use xlink:href="#DejaVuSans-32" transform="translate(354.199219 0)"/>
       <use xlink:href="#DejaVuSans-2d" transform="translate(417.822266 0)"/>
       <use xlink:href="#DejaVuSans-31" transform="translate(453.90625 0)"/>
       <use xlink:href="#DejaVuSans-30" transform="translate(517.529297 0)"/>
      </g>
     </g>
    </g>
    <g id="xtick_13">
     <g id="line2d_15">
      <g>
       <use xlink:href="#mfc5dd10c8a" x="850.05298" y="640.8" style="stroke: #000000; stroke-width: 1.25"/>
      </g>
     </g>
     <g id="text_13">
      <!-- 2023-03-02 -->
      <g transform="translate(829.597596 701.413545) rotate(-45) scale(0.11 -0.11)">
       <use xlink:href="#DejaVuSans-32"/>
       <use xlink:href="#DejaVuSans-30" transform="translate(63.623047 0)"/>
       <use xlink:href="#DejaVuSans-32" transform="translate(127.246094 0)"/>
       <use xlink:href="#DejaVuSans-33" transform="translate(190.869141 0)"/>
       <use xlink:href="#DejaVuSans-2d" transform="translate(254.492188 0)"/>
       <use xlink:href="#DejaVuSans-30" transform="translate(290.576172 0)"/>
       <use xlink:href="#DejaVuSans-33" transform="translate(354.199219 0)"/>
       <use xlink:href="#DejaVuSans-2d" transform="translate(417.822266 0)"/>
       <use xlink:href="#DejaVuSans-30" transform="translate(453.90625 0)"/>
       <use xlink:href="#DejaVuSans-32" transform="translate(517.529297 0)"/>
      </g>
     </g>
    </g>
    <g id="xtick_14">
     <g id="line2d_16">
      <g>
       <use xlink:href="#mfc5dd10c8a" x="905.483444" y="640.8" style="stroke: #000000; stroke-width: 1.25"/>
      </g>
     </g>
     <g id="text_14">
      <!-- 2023-03-22 -->
      <g transform="translate(885.02806 701.413545) rotate(-45) scale(0.11 -0.11)">
       <use xlink:href="#DejaVuSans-32"/>
       <use xlink:href="#DejaVuSans-30" transform="translate(63.623047 0)"/>
       <use xlink:href="#DejaVuSans-32" transform="translate(127.246094 0)"/>
       <use xlink:href="#DejaVuSans-33" transform="translate(190.869141 0)"/>
       <use xlink:href="#DejaVuSans-2d" transform="translate(254.492188 0)"/>
       <use xlink:href="#DejaVuSans-30" transform="translate(290.576172 0)"/>
       <use xlink:href="#DejaVuSans-33" transform="translate(354.199219 0)"/>
       <use xlink:href="#DejaVuSans-2d" transform="translate(417.822266 0)"/>
       <use xlink:href="#DejaVuSans-32" transform="translate(453.90625 0)"/>
       <use xlink:href="#DejaVuSans-32" transform="translate(517.529297 0)"/>
      </g>
     </g>
    </g>
    <g id="xtick_15">
     <g id="line2d_17">
      <g>
       <use xlink:href="#mfc5dd10c8a" x="960.913907" y="640.8" style="stroke: #000000; stroke-width: 1.25"/>
      </g>
     </g>
     <g id="text_15">
      <!-- 2023-04-11 -->
      <g transform="translate(940.458523 701.413545) rotate(-45) scale(0.11 -0.11)">
       <use xlink:href="#DejaVuSans-32"/>
       <use xlink:href="#DejaVuSans-30" transform="translate(63.623047 0)"/>
       <use xlink:href="#DejaVuSans-32" transform="translate(127.246094 0)"/>
       <use xlink:href="#DejaVuSans-33" transform="translate(190.869141 0)"/>
       <use xlink:href="#DejaVuSans-2d" transform="translate(254.492188 0)"/>
       <use xlink:href="#DejaVuSans-30" transform="translate(290.576172 0)"/>
       <use xlink:href="#DejaVuSans-34" transform="translate(354.199219 0)"/>
       <use xlink:href="#DejaVuSans-2d" transform="translate(417.822266 0)"/>
       <use xlink:href="#DejaVuSans-31" transform="translate(453.90625 0)"/>
       <use xlink:href="#DejaVuSans-31" transform="translate(517.529297 0)"/>
      </g>
     </g>
    </g>
    <g id="xtick_16">
     <g id="line2d_18">
      <defs>
       <path id="m65cfe53946" d="M 0 0 
L 0 4 
" style="stroke: #000000"/>
      </defs>
      <g>
       <use xlink:href="#m65cfe53946" x="143.31457" y="640.8" style="stroke: #000000"/>
      </g>
     </g>
    </g>
    <g id="xtick_17">
     <g id="line2d_19">
      <g>
       <use xlink:href="#m65cfe53946" x="157.172185" y="640.8" style="stroke: #000000"/>
      </g>
     </g>
    </g>
    <g id="xtick_18">
     <g id="line2d_20">
      <g>
       <use xlink:href="#m65cfe53946" x="171.029801" y="640.8" style="stroke: #000000"/>
      </g>
     </g>
    </g>
    <g id="xtick_19">
     <g id="line2d_21">
      <g>
       <use xlink:href="#m65cfe53946" x="198.745033" y="640.8" style="stroke: #000000"/>
      </g>
     </g>
    </g>
    <g id="xtick_20">
     <g id="line2d_22">
      <g>
       <use xlink:href="#m65cfe53946" x="212.602649" y="640.8" style="stroke: #000000"/>
      </g>
     </g>
    </g>
    <g id="xtick_21">
     <g id="line2d_23">
      <g>
       <use xlink:href="#m65cfe53946" x="226.460265" y="640.8" style="stroke: #000000"/>
      </g>
     </g>
    </g>
    <g id="xtick_22">
     <g id="line2d_24">
      <g>
       <use xlink:href="#m65cfe53946" x="254.175497" y="640.8" style="stroke: #000000"/>
      </g>
     </g>
    </g>
    <g id="xtick_23">
     <g id="line2d_25">
      <g>
       <use xlink:href="#m65cfe53946" x="268.033113" y="640.8" style="stroke: #000000"/>
      </g>
     </g>
    </g>
    <g id="xtick_24">
     <g id="line2d_26">
      <g>
       <use xlink:href="#m65cfe53946" x="281.890728" y="640.8" style="stroke: #000000"/>
      </g>
     </g>
    </g>
    <g id="xtick_25">
     <g id="line2d_27">
      <g>
       <use xlink:href="#m65cfe53946" x="309.60596" y="640.8" style="stroke: #000000"/>
      </g>
     </g>
    </g>
    <g id="xtick_26">
     <g id="line2d_28">
      <g>
       <use xlink:href="#m65cfe53946" x="323.463576" y="640.8" style="stroke: #000000"/>
      </g>
     </g>
    </g>
    <g id="xtick_27">
     <g id="line2d_29">
      <g>
       <use xlink:href="#m65cfe53946" x="337.321192" y="640.8" style="stroke: #000000"/>
      </g>
     </g>
    </g>
    <g id="xtick_28">
     <g id="line2d_30">
      <g>
       <use xlink:href="#m65cfe53946" x="365.036424" y="640.8" style="stroke: #000000"/>
      </g>
     </g>
    </g>
    <g id="xtick_29">
     <g id="line2d_31">
      <g>
       <use xlink:href="#m65cfe53946" x="378.89404" y="640.8" style="stroke: #000000"/>
      </g>
     </g>
    </g>
    <g id="xtick_30">
     <g id="line2d_32">
      <g>
       <use xlink:href="#m65cfe53946" x="392.751656" y="640.8" style="stroke: #000000"/>
      </g>
     </g>
    </g>
    <g id="xtick_31">
     <g id="line2d_33">
      <g>
       <use xlink:href="#m65cfe53946" x="420.466887" y="640.8" style="stroke: #000000"/>
      </g>
     </g>
    </g>
    <g id="xtick_32">
     <g id="line2d_34">
      <g>
       <use xlink:href="#m65cfe53946" x="434.324503" y="640.8" style="stroke: #000000"/>
      </g>
     </g>
    </g>
    <g id="xtick_33">
     <g id="line2d_35">
      <g>
       <use xlink:href="#m65cfe53946" x="448.182119" y="640.8" style="stroke: #000000"/>
      </g>
     </g>
    </g>
    <g id="xtick_34">
     <g id="line2d_36">
      <g>
       <use xlink:href="#m65cfe53946" x="475.897351" y="640.8" style="stroke: #000000"/>
      </g>
     </g>
    </g>
    <g id="xtick_35">
     <g id="line2d_37">
      <g>
       <use xlink:href="#m65cfe53946" x="489.754967" y="640.8" style="stroke: #000000"/>
      </g>
     </g>
    </g>
    <g id="xtick_36">
     <g id="line2d_38">
      <g>
       <use xlink:href="#m65cfe53946" x="503.612583" y="640.8" style="stroke: #000000"/>
      </g>
     </g>
    </g>
    <g id="xtick_37">
     <g id="line2d_39">
      <g>
       <use xlink:href="#m65cfe53946" x="531.327815" y="640.8" style="stroke: #000000"/>
      </g>
     </g>
    </g>
    <g id="xtick_38">
     <g id="line2d_40">
      <g>
       <use xlink:href="#m65cfe53946" x="545.18543" y="640.8" style="stroke: #000000"/>
      </g>
     </g>
    </g>
    <g id="xtick_39">
     <g id="line2d_41">
      <g>
       <use xlink:href="#m65cfe53946" x="559.043046" y="640.8" style="stroke: #000000"/>
      </g>
     </g>
    </g>
    <g id="xtick_40">
     <g id="line2d_42">
      <g>
       <use xlink:href="#m65cfe53946" x="586.758278" y="640.8" style="stroke: #000000"/>
      </g>
     </g>
    </g>
    <g id="xtick_41">
     <g id="line2d_43">
      <g>
       <use xlink:href="#m65cfe53946" x="600.615894" y="640.8" style="stroke: #000000"/>
      </g>
     </g>
    </g>
    <g id="xtick_42">
     <g id="line2d_44">
      <g>
       <use xlink:href="#m65cfe53946" x="614.47351" y="640.8" style="stroke: #000000"/>
      </g>
     </g>
    </g>
    <g id="xtick_43">
     <g id="line2d_45">
      <g>
       <use xlink:href="#m65cfe53946" x="642.188742" y="640.8" style="stroke: #000000"/>
      </g>
     </g>
    </g>
    <g id="xtick_44">
     <g id="line2d_46">
      <g>
       <use xlink:href="#m65cfe53946" x="656.046358" y="640.8" style="stroke: #000000"/>
      </g>
     </g>
    </g>
    <g id="xtick_45">
     <g id="line2d_47">
      <g>
       <use xlink:href="#m65cfe53946" x="669.903974" y="640.8" style="stroke: #000000"/>
      </g>
     </g>
    </g>
    <g id="xtick_46">
     <g id="line2d_48">
      <g>
       <use xlink:href="#m65cfe53946" x="697.619205" y="640.8" style="stroke: #000000"/>
      </g>
     </g>
    </g>
    <g id="xtick_47">
     <g id="line2d_49">
      <g>
       <use xlink:href="#m65cfe53946" x="711.476821" y="640.8" style="stroke: #000000"/>
      </g>
     </g>
    </g>
    <g id="xtick_48">
     <g id="line2d_50">
      <g>
       <use xlink:href="#m65cfe53946" x="725.334437" y="640.8" style="stroke: #000000"/>
      </g>
     </g>
    </g>
    <g id="xtick_49">
     <g id="line2d_51">
      <g>
       <use xlink:href="#m65cfe53946" x="753.049669" y="640.8" style="stroke: #000000"/>
      </g>
     </g>
    </g>
    <g id="xtick_50">
     <g id="line2d_52">
      <g>
       <use xlink:href="#m65cfe53946" x="766.907285" y="640.8" style="stroke: #000000"/>
      </g>
     </g>
    </g>
    <g id="xtick_51">
     <g id="line2d_53">
      <g>
       <use xlink:href="#m65cfe53946" x="780.764901" y="640.8" style="stroke: #000000"/>
      </g>
     </g>
    </g>
    <g id="xtick_52">
     <g id="line2d_54">
      <g>
       <use xlink:href="#m65cfe53946" x="808.480132" y="640.8" style="stroke: #000000"/>
      </g>
     </g>
    </g>
    <g id="xtick_53">
     <g id="line2d_55">
      <g>
       <use xlink:href="#m65cfe53946" x="822.337748" y="640.8" style="stroke: #000000"/>
      </g>
     </g>
    </g>
    <g id="xtick_54">
     <g id="line2d_56">
      <g>
       <use xlink:href="#m65cfe53946" x="836.195364" y="640.8" style="stroke: #000000"/>
      </g>
     </g>
    </g>
    <g id="xtick_55">
     <g id="line2d_57">
      <g>
       <use xlink:href="#m65cfe53946" x="863.910596" y="640.8" style="stroke: #000000"/>
      </g>
     </g>
    </g>
    <g id="xtick_56">
     <g id="line2d_58">
      <g>
       <use xlink:href="#m65cfe53946" x="877.768212" y="640.8" style="stroke: #000000"/>
      </g>
     </g>
    </g>
    <g id="xtick_57">
     <g id="line2d_59">
      <g>
       <use xlink:href="#m65cfe53946" x="891.625828" y="640.8" style="stroke: #000000"/>
      </g>
     </g>
    </g>
    <g id="xtick_58">
     <g id="line2d_60">
      <g>
       <use xlink:href="#m65cfe53946" x="919.34106" y="640.8" style="stroke: #000000"/>
      </g>
     </g>
    </g>
    <g id="xtick_59">
     <g id="line2d_61">
      <g>
       <use xlink:href="#m65cfe53946" x="933.198675" y="640.8" style="stroke: #000000"/>
      </g>
     </g>
    </g>
    <g id="xtick_60">
     <g id="line2d_62">
      <g>
       <use xlink:href="#m65cfe53946" x="947.056291" y="640.8" style="stroke: #000000"/>
      </g>
     </g>
    </g>
    <g id="text_16">
     <!-- Date -->
     <g transform="translate(531.988594 720.70835) scale(0.18 -0.18)">
      <defs>
       <path id="DejaVuSans-44" d="M 1259 4147 
L 1259 519 
L 2022 519 
Q 2988 519 3436 956 
Q 3884 1394 3884 2338 
Q 3884 3275 3436 3711 
Q 2988 4147 2022 4147 
L 1259 4147 
z
M 628 4666 
L 1925 4666 
Q 3281 4666 3915 4102 
Q 4550 3538 4550 2338 
Q 4550 1131 3912 565 
Q 3275 0 1925 0 
L 628 0 
L 628 4666 
z
" transform="scale(0.015625)"/>
       <path id="DejaVuSans-61" d="M 2194 1759 
Q 1497 1759 1228 1600 
Q 959 1441 959 1056 
Q 959 750 1161 570 
Q 1363 391 1709 391 
Q 2188 391 2477 730 
Q 2766 1069 2766 1631 
L 2766 1759 
L 2194 1759 
z
M 3341 1997 
L 3341 0 
L 2766 0 
L 2766 531 
Q 2569 213 2275 61 
Q 1981 -91 1556 -91 
Q 1019 -91 701 211 
Q 384 513 384 1019 
Q 384 1609 779 1909 
Q 1175 2209 1959 2209 
L 2766 2209 
L 2766 2266 
Q 2766 2663 2505 2880 
Q 2244 3097 1772 3097 
Q 1472 3097 1187 3025 
Q 903 2953 641 2809 
L 641 3341 
Q 956 3463 1253 3523 
Q 1550 3584 1831 3584 
Q 2591 3584 2966 3190 
Q 3341 2797 3341 1997 
z
" transform="scale(0.015625)"/>
       <path id="DejaVuSans-74" d="M 1172 4494 
L 1172 3500 
L 2356 3500 
L 2356 3053 
L 1172 3053 
L 1172 1153 
Q 1172 725 1289 603 
Q 1406 481 1766 481 
L 2356 481 
L 2356 0 
L 1766 0 
Q 1100 0 847 248 
Q 594 497 594 1153 
L 594 3053 
L 172 3053 
L 172 3500 
L 594 3500 
L 594 4494 
L 1172 4494 
z
" transform="scale(0.015625)"/>
       <path id="DejaVuSans-65" d="M 3597 1894 
L 3597 1613 
L 953 1613 
Q 991 1019 1311 708 
Q 1631 397 2203 397 
Q 2534 397 2845 478 
Q 3156 559 3463 722 
L 3463 178 
Q 3153 47 2828 -22 
Q 2503 -91 2169 -91 
Q 1331 -91 842 396 
Q 353 884 353 1716 
Q 353 2575 817 3079 
Q 1281 3584 2069 3584 
Q 2775 3584 3186 3129 
Q 3597 2675 3597 1894 
z
M 3022 2063 
Q 3016 2534 2758 2815 
Q 2500 3097 2075 3097 
Q 1594 3097 1305 2825 
Q 1016 2553 972 2059 
L 3022 2063 
z
" transform="scale(0.015625)"/>
      </defs>
      <use xlink:href="#DejaVuSans-44"/>
      <use xlink:href="#DejaVuSans-61" transform="translate(77.001953 0)"/>
      <use xlink:href="#DejaVuSans-74" transform="translate(138.28125 0)"/>
      <use xlink:href="#DejaVuSans-65" transform="translate(177.490234 0)"/>
     </g>
    </g>
   </g>
   <g id="matplotlib.axis_2">
    <g id="ytick_1">
     <g id="line2d_63">
      <defs>
       <path id="mddf3c5b8b1" d="M 0 0 
L -6 0 
" style="stroke: #000000; stroke-width: 1.25"/>
      </defs>
      <g>
       <use xlink:href="#mddf3c5b8b1" x="135" y="623.660177" style="stroke: #000000; stroke-width: 1.25"/>
      </g>
     </g>
     <g id="text_17">
      <!-- 0 -->
      <g transform="translate(118.50125 627.839317) scale(0.11 -0.11)">
       <use xlink:href="#DejaVuSans-30"/>
      </g>
     </g>
    </g>
    <g id="ytick_2">
     <g id="line2d_64">
      <g>
       <use xlink:href="#mddf3c5b8b1" x="135" y="552.331179" style="stroke: #000000; stroke-width: 1.25"/>
      </g>
     </g>
     <g id="text_18">
      <!-- 25 -->
      <g transform="translate(111.5025 556.510319) scale(0.11 -0.11)">
       <use xlink:href="#DejaVuSans-32"/>
       <use xlink:href="#DejaVuSans-35" transform="translate(63.623047 0)"/>
      </g>
     </g>
    </g>
    <g id="ytick_3">
     <g id="line2d_65">
      <g>
       <use xlink:href="#mddf3c5b8b1" x="135" y="481.002181" style="stroke: #000000; stroke-width: 1.25"/>
      </g>
     </g>
     <g id="text_19">
      <!-- 50 -->
      <g transform="translate(111.5025 485.181322) scale(0.11 -0.11)">
       <use xlink:href="#DejaVuSans-35"/>
       <use xlink:href="#DejaVuSans-30" transform="translate(63.623047 0)"/>
      </g>
     </g>
    </g>
    <g id="ytick_4">
     <g id="line2d_66">
      <g>
       <use xlink:href="#mddf3c5b8b1" x="135" y="409.673183" style="stroke: #000000; stroke-width: 1.25"/>
      </g>
     </g>
     <g id="text_20">
      <!-- 75 -->
      <g transform="translate(111.5025 413.852324) scale(0.11 -0.11)">
       <use xlink:href="#DejaVuSans-37"/>
       <use xlink:href="#DejaVuSans-35" transform="translate(63.623047 0)"/>
      </g>
     </g>
    </g>
    <g id="ytick_5">
     <g id="line2d_67">
      <g>
       <use xlink:href="#mddf3c5b8b1" x="135" y="338.344185" style="stroke: #000000; stroke-width: 1.25"/>
      </g>
     </g>
     <g id="text_21">
      <!-- 100 -->
      <g transform="translate(104.50375 342.523326) scale(0.11 -0.11)">
       <use xlink:href="#DejaVuSans-31"/>
       <use xlink:href="#DejaVuSans-30" transform="translate(63.623047 0)"/>
       <use xlink:href="#DejaVuSans-30" transform="translate(127.246094 0)"/>
      </g>
     </g>
    </g>
    <g id="ytick_6">
     <g id="line2d_68">
      <g>
       <use xlink:href="#mddf3c5b8b1" x="135" y="267.015187" style="stroke: #000000; stroke-width: 1.25"/>
      </g>
     </g>
     <g id="text_22">
      <!-- 125 -->
      <g transform="translate(104.50375 271.194328) scale(0.11 -0.11)">
       <use xlink:href="#DejaVuSans-31"/>
       <use xlink:href="#DejaVuSans-32" transform="translate(63.623047 0)"/>
       <use xlink:href="#DejaVuSans-35" transform="translate(127.246094 0)"/>
      </g>
     </g>
    </g>
    <g id="ytick_7">
     <g id="line2d_69">
      <g>
       <use xlink:href="#mddf3c5b8b1" x="135" y="195.686189" style="stroke: #000000; stroke-width: 1.25"/>
      </g>
     </g>
     <g id="text_23">
      <!-- 150 -->
      <g transform="translate(104.50375 199.86533) scale(0.11 -0.11)">
       <use xlink:href="#DejaVuSans-31"/>
       <use xlink:href="#DejaVuSans-35" transform="translate(63.623047 0)"/>
       <use xlink:href="#DejaVuSans-30" transform="translate(127.246094 0)"/>
      </g>
     </g>
    </g>
    <g id="ytick_8">
     <g id="line2d_70">
      <g>
       <use xlink:href="#mddf3c5b8b1" x="135" y="124.357191" style="stroke: #000000; stroke-width: 1.25"/>
      </g>
     </g>
     <g id="text_24">
      <!-- 175 -->
      <g transform="translate(104.50375 128.536332) scale(0.11 -0.11)">
       <use xlink:href="#DejaVuSans-31"/>
       <use xlink:href="#DejaVuSans-37" transform="translate(63.623047 0)"/>
       <use xlink:href="#DejaVuSans-35" transform="translate(127.246094 0)"/>
      </g>
     </g>
    </g>
    <g id="ytick_9">
     <g id="line2d_71">
      <defs>
       <path id="m3736c524de" d="M 0 0 
L -4 0 
" style="stroke: #000000"/>
      </defs>
      <g>
       <use xlink:href="#m3736c524de" x="135" y="637.925976" style="stroke: #000000"/>
      </g>
     </g>
    </g>
    <g id="ytick_10">
     <g id="line2d_72">
      <g>
       <use xlink:href="#m3736c524de" x="135" y="609.394377" style="stroke: #000000"/>
      </g>
     </g>
    </g>
    <g id="ytick_11">
     <g id="line2d_73">
      <g>
       <use xlink:href="#m3736c524de" x="135" y="595.128578" style="stroke: #000000"/>
      </g>
     </g>
    </g>
    <g id="ytick_12">
     <g id="line2d_74">
      <g>
       <use xlink:href="#m3736c524de" x="135" y="580.862778" style="stroke: #000000"/>
      </g>
     </g>
    </g>
    <g id="ytick_13">
     <g id="line2d_75">
      <g>
       <use xlink:href="#m3736c524de" x="135" y="566.596978" style="stroke: #000000"/>
      </g>
     </g>
    </g>
    <g id="ytick_14">
     <g id="line2d_76">
      <g>
       <use xlink:href="#m3736c524de" x="135" y="538.065379" style="stroke: #000000"/>
      </g>
     </g>
    </g>
    <g id="ytick_15">
     <g id="line2d_77">
      <g>
       <use xlink:href="#m3736c524de" x="135" y="523.79958" style="stroke: #000000"/>
      </g>
     </g>
    </g>
    <g id="ytick_16">
     <g id="line2d_78">
      <g>
       <use xlink:href="#m3736c524de" x="135" y="509.53378" style="stroke: #000000"/>
      </g>
     </g>
    </g>
    <g id="ytick_17">
     <g id="line2d_79">
      <g>
       <use xlink:href="#m3736c524de" x="135" y="495.26798" style="stroke: #000000"/>
      </g>
     </g>
    </g>
    <g id="ytick_18">
     <g id="line2d_80">
      <g>
       <use xlink:href="#m3736c524de" x="135" y="466.736381" style="stroke: #000000"/>
      </g>
     </g>
    </g>
    <g id="ytick_19">
     <g id="line2d_81">
      <g>
       <use xlink:href="#m3736c524de" x="135" y="452.470582" style="stroke: #000000"/>
      </g>
     </g>
    </g>
    <g id="ytick_20">
     <g id="line2d_82">
      <g>
       <use xlink:href="#m3736c524de" x="135" y="438.204782" style="stroke: #000000"/>
      </g>
     </g>
    </g>
    <g id="ytick_21">
     <g id="line2d_83">
      <g>
       <use xlink:href="#m3736c524de" x="135" y="423.938983" style="stroke: #000000"/>
      </g>
     </g>
    </g>
    <g id="ytick_22">
     <g id="line2d_84">
      <g>
       <use xlink:href="#m3736c524de" x="135" y="395.407383" style="stroke: #000000"/>
      </g>
     </g>
    </g>
    <g id="ytick_23">
     <g id="line2d_85">
      <g>
       <use xlink:href="#m3736c524de" x="135" y="381.141584" style="stroke: #000000"/>
      </g>
     </g>
    </g>
    <g id="ytick_24">
     <g id="line2d_86">
      <g>
       <use xlink:href="#m3736c524de" x="135" y="366.875784" style="stroke: #000000"/>
      </g>
     </g>
    </g>
    <g id="ytick_25">
     <g id="line2d_87">
      <g>
       <use xlink:href="#m3736c524de" x="135" y="352.609985" style="stroke: #000000"/>
      </g>
     </g>
    </g>
    <g id="ytick_26">
     <g id="line2d_88">
      <g>
       <use xlink:href="#m3736c524de" x="135" y="324.078385" style="stroke: #000000"/>
      </g>
     </g>
    </g>
    <g id="ytick_27">
     <g id="line2d_89">
      <g>
       <use xlink:href="#m3736c524de" x="135" y="309.812586" style="stroke: #000000"/>
      </g>
     </g>
    </g>
    <g id="ytick_28">
     <g id="line2d_90">
      <g>
       <use xlink:href="#m3736c524de" x="135" y="295.546786" style="stroke: #000000"/>
      </g>
     </g>
    </g>
    <g id="ytick_29">
     <g id="line2d_91">
      <g>
       <use xlink:href="#m3736c524de" x="135" y="281.280987" style="stroke: #000000"/>
      </g>
     </g>
    </g>
    <g id="ytick_30">
     <g id="line2d_92">
      <g>
       <use xlink:href="#m3736c524de" x="135" y="252.749388" style="stroke: #000000"/>
      </g>
     </g>
    </g>
    <g id="ytick_31">
     <g id="line2d_93">
      <g>
       <use xlink:href="#m3736c524de" x="135" y="238.483588" style="stroke: #000000"/>
      </g>
     </g>
    </g>
    <g id="ytick_32">
     <g id="line2d_94">
      <g>
       <use xlink:href="#m3736c524de" x="135" y="224.217788" style="stroke: #000000"/>
      </g>
     </g>
    </g>
    <g id="ytick_33">
     <g id="line2d_95">
      <g>
       <use xlink:href="#m3736c524de" x="135" y="209.951989" style="stroke: #000000"/>
      </g>
     </g>
    </g>
    <g id="ytick_34">
     <g id="line2d_96">
      <g>
       <use xlink:href="#m3736c524de" x="135" y="181.42039" style="stroke: #000000"/>
      </g>
     </g>
    </g>
    <g id="ytick_35">
     <g id="line2d_97">
      <g>
       <use xlink:href="#m3736c524de" x="135" y="167.15459" style="stroke: #000000"/>
      </g>
     </g>
    </g>
    <g id="ytick_36">
     <g id="line2d_98">
      <g>
       <use xlink:href="#m3736c524de" x="135" y="152.88879" style="stroke: #000000"/>
      </g>
     </g>
    </g>
    <g id="ytick_37">
     <g id="line2d_99">
      <g>
       <use xlink:href="#m3736c524de" x="135" y="138.622991" style="stroke: #000000"/>
      </g>
     </g>
    </g>
    <g id="ytick_38">
     <g id="line2d_100">
      <g>
       <use xlink:href="#m3736c524de" x="135" y="110.091392" style="stroke: #000000"/>
      </g>
     </g>
    </g>
    <g id="ytick_39">
     <g id="line2d_101">
      <g>
       <use xlink:href="#m3736c524de" x="135" y="95.825592" style="stroke: #000000"/>
      </g>
     </g>
    </g>
    <g id="text_25">
     <!-- Energy (kWh) -->
     <g transform="translate(96.760312 424.808437) rotate(-90) scale(0.18 -0.18)">
      <defs>
       <path id="DejaVuSans-45" d="M 628 4666 
L 3578 4666 
L 3578 4134 
L 1259 4134 
L 1259 2753 
L 3481 2753 
L 3481 2222 
L 1259 2222 
L 1259 531 
L 3634 531 
L 3634 0 
L 628 0 
L 628 4666 
z
" transform="scale(0.015625)"/>
       <path id="DejaVuSans-6e" d="M 3513 2113 
L 3513 0 
L 2938 0 
L 2938 2094 
Q 2938 2591 2744 2837 
Q 2550 3084 2163 3084 
Q 1697 3084 1428 2787 
Q 1159 2491 1159 1978 
L 1159 0 
L 581 0 
L 581 3500 
L 1159 3500 
L 1159 2956 
Q 1366 3272 1645 3428 
Q 1925 3584 2291 3584 
Q 2894 3584 3203 3211 
Q 3513 2838 3513 2113 
z
" transform="scale(0.015625)"/>
       <path id="DejaVuSans-72" d="M 2631 2963 
Q 2534 3019 2420 3045 
Q 2306 3072 2169 3072 
Q 1681 3072 1420 2755 
Q 1159 2438 1159 1844 
L 1159 0 
L 581 0 
L 581 3500 
L 1159 3500 
L 1159 2956 
Q 1341 3275 1631 3429 
Q 1922 3584 2338 3584 
Q 2397 3584 2469 3576 
Q 2541 3569 2628 3553 
L 2631 2963 
z
" transform="scale(0.015625)"/>
       <path id="DejaVuSans-67" d="M 2906 1791 
Q 2906 2416 2648 2759 
Q 2391 3103 1925 3103 
Q 1463 3103 1205 2759 
Q 947 2416 947 1791 
Q 947 1169 1205 825 
Q 1463 481 1925 481 
Q 2391 481 2648 825 
Q 2906 1169 2906 1791 
z
M 3481 434 
Q 3481 -459 3084 -895 
Q 2688 -1331 1869 -1331 
Q 1566 -1331 1297 -1286 
Q 1028 -1241 775 -1147 
L 775 -588 
Q 1028 -725 1275 -790 
Q 1522 -856 1778 -856 
Q 2344 -856 2625 -561 
Q 2906 -266 2906 331 
L 2906 616 
Q 2728 306 2450 153 
Q 2172 0 1784 0 
Q 1141 0 747 490 
Q 353 981 353 1791 
Q 353 2603 747 3093 
Q 1141 3584 1784 3584 
Q 2172 3584 2450 3431 
Q 2728 3278 2906 2969 
L 2906 3500 
L 3481 3500 
L 3481 434 
z
" transform="scale(0.015625)"/>
       <path id="DejaVuSans-79" d="M 2059 -325 
Q 1816 -950 1584 -1140 
Q 1353 -1331 966 -1331 
L 506 -1331 
L 506 -850 
L 844 -850 
Q 1081 -850 1212 -737 
Q 1344 -625 1503 -206 
L 1606 56 
L 191 3500 
L 800 3500 
L 1894 763 
L 2988 3500 
L 3597 3500 
L 2059 -325 
z
" transform="scale(0.015625)"/>
       <path id="DejaVuSans-20" transform="scale(0.015625)"/>
       <path id="DejaVuSans-28" d="M 1984 4856 
Q 1566 4138 1362 3434 
Q 1159 2731 1159 2009 
Q 1159 1288 1364 580 
Q 1569 -128 1984 -844 
L 1484 -844 
Q 1016 -109 783 600 
Q 550 1309 550 2009 
Q 550 2706 781 3412 
Q 1013 4119 1484 4856 
L 1984 4856 
z
" transform="scale(0.015625)"/>
       <path id="DejaVuSans-6b" d="M 581 4863 
L 1159 4863 
L 1159 1991 
L 2875 3500 
L 3609 3500 
L 1753 1863 
L 3688 0 
L 2938 0 
L 1159 1709 
L 1159 0 
L 581 0 
L 581 4863 
z
" transform="scale(0.015625)"/>
       <path id="DejaVuSans-57" d="M 213 4666 
L 850 4666 
L 1831 722 
L 2809 4666 
L 3519 4666 
L 4500 722 
L 5478 4666 
L 6119 4666 
L 4947 0 
L 4153 0 
L 3169 4050 
L 2175 0 
L 1381 0 
L 213 4666 
z
" transform="scale(0.015625)"/>
       <path id="DejaVuSans-68" d="M 3513 2113 
L 3513 0 
L 2938 0 
L 2938 2094 
Q 2938 2591 2744 2837 
Q 2550 3084 2163 3084 
Q 1697 3084 1428 2787 
Q 1159 2491 1159 1978 
L 1159 0 
L 581 0 
L 581 4863 
L 1159 4863 
L 1159 2956 
Q 1366 3272 1645 3428 
Q 1925 3584 2291 3584 
Q 2894 3584 3203 3211 
Q 3513 2838 3513 2113 
z
" transform="scale(0.015625)"/>
       <path id="DejaVuSans-29" d="M 513 4856 
L 1013 4856 
Q 1481 4119 1714 3412 
Q 1947 2706 1947 2009 
Q 1947 1309 1714 600 
Q 1481 -109 1013 -844 
L 513 -844 
Q 928 -128 1133 580 
Q 1338 1288 1338 2009 
Q 1338 2731 1133 3434 
Q 928 4138 513 4856 
z
" transform="scale(0.015625)"/>
      </defs>
      <use xlink:href="#DejaVuSans-45"/>
      <use xlink:href="#DejaVuSans-6e" transform="translate(63.183594 0)"/>
      <use xlink:href="#DejaVuSans-65" transform="translate(126.5625 0)"/>
      <use xlink:href="#DejaVuSans-72" transform="translate(188.085938 0)"/>
      <use xlink:href="#DejaVuSans-67" transform="translate(227.449219 0)"/>
      <use xlink:href="#DejaVuSans-79" transform="translate(290.925781 0)"/>
      <use xlink:href="#DejaVuSans-20" transform="translate(350.105469 0)"/>
      <use xlink:href="#DejaVuSans-28" transform="translate(381.892578 0)"/>
      <use xlink:href="#DejaVuSans-6b" transform="translate(420.90625 0)"/>
      <use xlink:href="#DejaVuSans-57" transform="translate(478.816406 0)"/>
      <use xlink:href="#DejaVuSans-68" transform="translate(577.693359 0)"/>
      <use xlink:href="#DejaVuSans-29" transform="translate(641.072266 0)"/>
     </g>
    </g>
   </g>
   <g id="text_26">
    <!-- Solar Energy Forecasting - GMU -->
    <g transform="translate(363.564375 80.4) scale(0.24 -0.24)">
     <defs>
      <path id="DejaVuSans-53" d="M 3425 4513 
L 3425 3897 
Q 3066 4069 2747 4153 
Q 2428 4238 2131 4238 
Q 1616 4238 1336 4038 
Q 1056 3838 1056 3469 
Q 1056 3159 1242 3001 
Q 1428 2844 1947 2747 
L 2328 2669 
Q 3034 2534 3370 2195 
Q 3706 1856 3706 1288 
Q 3706 609 3251 259 
Q 2797 -91 1919 -91 
Q 1588 -91 1214 -16 
Q 841 59 441 206 
L 441 856 
Q 825 641 1194 531 
Q 1563 422 1919 422 
Q 2459 422 2753 634 
Q 3047 847 3047 1241 
Q 3047 1584 2836 1778 
Q 2625 1972 2144 2069 
L 1759 2144 
Q 1053 2284 737 2584 
Q 422 2884 422 3419 
Q 422 4038 858 4394 
Q 1294 4750 2059 4750 
Q 2388 4750 2728 4690 
Q 3069 4631 3425 4513 
z
" transform="scale(0.015625)"/>
      <path id="DejaVuSans-6f" d="M 1959 3097 
Q 1497 3097 1228 2736 
Q 959 2375 959 1747 
Q 959 1119 1226 758 
Q 1494 397 1959 397 
Q 2419 397 2687 759 
Q 2956 1122 2956 1747 
Q 2956 2369 2687 2733 
Q 2419 3097 1959 3097 
z
M 1959 3584 
Q 2709 3584 3137 3096 
Q 3566 2609 3566 1747 
Q 3566 888 3137 398 
Q 2709 -91 1959 -91 
Q 1206 -91 779 398 
Q 353 888 353 1747 
Q 353 2609 779 3096 
Q 1206 3584 1959 3584 
z
" transform="scale(0.015625)"/>
      <path id="DejaVuSans-6c" d="M 603 4863 
L 1178 4863 
L 1178 0 
L 603 0 
L 603 4863 
z
" transform="scale(0.015625)"/>
      <path id="DejaVuSans-46" d="M 628 4666 
L 3309 4666 
L 3309 4134 
L 1259 4134 
L 1259 2759 
L 3109 2759 
L 3109 2228 
L 1259 2228 
L 1259 0 
L 628 0 
L 628 4666 
z
" transform="scale(0.015625)"/>
      <path id="DejaVuSans-63" d="M 3122 3366 
L 3122 2828 
Q 2878 2963 2633 3030 
Q 2388 3097 2138 3097 
Q 1578 3097 1268 2742 
Q 959 2388 959 1747 
Q 959 1106 1268 751 
Q 1578 397 2138 397 
Q 2388 397 2633 464 
Q 2878 531 3122 666 
L 3122 134 
Q 2881 22 2623 -34 
Q 2366 -91 2075 -91 
Q 1284 -91 818 406 
Q 353 903 353 1747 
Q 353 2603 823 3093 
Q 1294 3584 2113 3584 
Q 2378 3584 2631 3529 
Q 2884 3475 3122 3366 
z
" transform="scale(0.015625)"/>
      <path id="DejaVuSans-73" d="M 2834 3397 
L 2834 2853 
Q 2591 2978 2328 3040 
Q 2066 3103 1784 3103 
Q 1356 3103 1142 2972 
Q 928 2841 928 2578 
Q 928 2378 1081 2264 
Q 1234 2150 1697 2047 
L 1894 2003 
Q 2506 1872 2764 1633 
Q 3022 1394 3022 966 
Q 3022 478 2636 193 
Q 2250 -91 1575 -91 
Q 1294 -91 989 -36 
Q 684 19 347 128 
L 347 722 
Q 666 556 975 473 
Q 1284 391 1588 391 
Q 1994 391 2212 530 
Q 2431 669 2431 922 
Q 2431 1156 2273 1281 
Q 2116 1406 1581 1522 
L 1381 1569 
Q 847 1681 609 1914 
Q 372 2147 372 2553 
Q 372 3047 722 3315 
Q 1072 3584 1716 3584 
Q 2034 3584 2315 3537 
Q 2597 3491 2834 3397 
z
" transform="scale(0.015625)"/>
      <path id="DejaVuSans-69" d="M 603 3500 
L 1178 3500 
L 1178 0 
L 603 0 
L 603 3500 
z
M 603 4863 
L 1178 4863 
L 1178 4134 
L 603 4134 
L 603 4863 
z
" transform="scale(0.015625)"/>
      <path id="DejaVuSans-47" d="M 3809 666 
L 3809 1919 
L 2778 1919 
L 2778 2438 
L 4434 2438 
L 4434 434 
Q 4069 175 3628 42 
Q 3188 -91 2688 -91 
Q 1594 -91 976 548 
Q 359 1188 359 2328 
Q 359 3472 976 4111 
Q 1594 4750 2688 4750 
Q 3144 4750 3555 4637 
Q 3966 4525 4313 4306 
L 4313 3634 
Q 3963 3931 3569 4081 
Q 3175 4231 2741 4231 
Q 1884 4231 1454 3753 
Q 1025 3275 1025 2328 
Q 1025 1384 1454 906 
Q 1884 428 2741 428 
Q 3075 428 3337 486 
Q 3600 544 3809 666 
z
" transform="scale(0.015625)"/>
      <path id="DejaVuSans-4d" d="M 628 4666 
L 1569 4666 
L 2759 1491 
L 3956 4666 
L 4897 4666 
L 4897 0 
L 4281 0 
L 4281 4097 
L 3078 897 
L 2444 897 
L 1241 4097 
L 1241 0 
L 628 0 
L 628 4666 
z
" transform="scale(0.015625)"/>
      <path id="DejaVuSans-55" d="M 556 4666 
L 1191 4666 
L 1191 1831 
Q 1191 1081 1462 751 
Q 1734 422 2344 422 
Q 2950 422 3222 751 
Q 3494 1081 3494 1831 
L 3494 4666 
L 4128 4666 
L 4128 1753 
Q 4128 841 3676 375 
Q 3225 -91 2344 -91 
Q 1459 -91 1007 375 
Q 556 841 556 1753 
L 556 4666 
z
" transform="scale(0.015625)"/>
     </defs>
     <use xlink:href="#DejaVuSans-53"/>
     <use xlink:href="#DejaVuSans-6f" transform="translate(63.476562 0)"/>
     <use xlink:href="#DejaVuSans-6c" transform="translate(124.658203 0)"/>
     <use xlink:href="#DejaVuSans-61" transform="translate(152.441406 0)"/>
     <use xlink:href="#DejaVuSans-72" transform="translate(213.720703 0)"/>
     <use xlink:href="#DejaVuSans-20" transform="translate(254.833984 0)"/>
     <use xlink:href="#DejaVuSans-45" transform="translate(286.621094 0)"/>
     <use xlink:href="#DejaVuSans-6e" transform="translate(349.804688 0)"/>
     <use xlink:href="#DejaVuSans-65" transform="translate(413.183594 0)"/>
     <use xlink:href="#DejaVuSans-72" transform="translate(474.707031 0)"/>
     <use xlink:href="#DejaVuSans-67" transform="translate(514.070312 0)"/>
     <use xlink:href="#DejaVuSans-79" transform="translate(577.546875 0)"/>
     <use xlink:href="#DejaVuSans-20" transform="translate(636.726562 0)"/>
     <use xlink:href="#DejaVuSans-46" transform="translate(668.513672 0)"/>
     <use xlink:href="#DejaVuSans-6f" transform="translate(722.408203 0)"/>
     <use xlink:href="#DejaVuSans-72" transform="translate(783.589844 0)"/>
     <use xlink:href="#DejaVuSans-65" transform="translate(822.453125 0)"/>
     <use xlink:href="#DejaVuSans-63" transform="translate(883.976562 0)"/>
     <use xlink:href="#DejaVuSans-61" transform="translate(938.957031 0)"/>
     <use xlink:href="#DejaVuSans-73" transform="translate(1000.236328 0)"/>
     <use xlink:href="#DejaVuSans-74" transform="translate(1052.335938 0)"/>
     <use xlink:href="#DejaVuSans-69" transform="translate(1091.544922 0)"/>
     <use xlink:href="#DejaVuSans-6e" transform="translate(1119.328125 0)"/>
     <use xlink:href="#DejaVuSans-67" transform="translate(1182.707031 0)"/>
     <use xlink:href="#DejaVuSans-20" transform="translate(1246.183594 0)"/>
     <use xlink:href="#DejaVuSans-2d" transform="translate(1277.970703 0)"/>
     <use xlink:href="#DejaVuSans-20" transform="translate(1314.054688 0)"/>
     <use xlink:href="#DejaVuSans-47" transform="translate(1345.841797 0)"/>
     <use xlink:href="#DejaVuSans-4d" transform="translate(1423.332031 0)"/>
     <use xlink:href="#DejaVuSans-55" transform="translate(1509.611328 0)"/>
    </g>
   </g>
   <g id="legend_1">
    <g id="patch_5">
     <path d="M 904.960156 127.491875 
L 964.3 127.491875 
Q 966.5 127.491875 966.5 125.291875 
L 966.5 94.1 
Q 966.5 91.9 964.3 91.9 
L 904.960156 91.9 
Q 902.760156 91.9 902.760156 94.1 
L 902.760156 125.291875 
Q 902.760156 127.491875 904.960156 127.491875 
L 904.960156 127.491875 
z
" style="fill: none; opacity: 0.8; stroke: #cccccc; stroke-linejoin: miter"/>
    </g>
    <g id="line2d_102">
     <path d="M 907.160156 100.808281 
L 918.160156 100.808281 
L 929.160156 100.808281 
" style="fill: none; stroke: #4c72b0; stroke-width: 1.5; stroke-linecap: round"/>
    </g>
    <g id="text_27">
     <!-- Real -->
     <g transform="translate(937.960156 104.658281) scale(0.11 -0.11)">
      <defs>
       <path id="DejaVuSans-52" d="M 2841 2188 
Q 3044 2119 3236 1894 
Q 3428 1669 3622 1275 
L 4263 0 
L 3584 0 
L 2988 1197 
Q 2756 1666 2539 1819 
Q 2322 1972 1947 1972 
L 1259 1972 
L 1259 0 
L 628 0 
L 628 4666 
L 2053 4666 
Q 2853 4666 3247 4331 
Q 3641 3997 3641 3322 
Q 3641 2881 3436 2590 
Q 3231 2300 2841 2188 
z
M 1259 4147 
L 1259 2491 
L 2053 2491 
Q 2509 2491 2742 2702 
Q 2975 2913 2975 3322 
Q 2975 3731 2742 3939 
Q 2509 4147 2053 4147 
L 1259 4147 
z
" transform="scale(0.015625)"/>
      </defs>
      <use xlink:href="#DejaVuSans-52"/>
      <use xlink:href="#DejaVuSans-65" transform="translate(64.982422 0)"/>
      <use xlink:href="#DejaVuSans-61" transform="translate(126.505859 0)"/>
      <use xlink:href="#DejaVuSans-6c" transform="translate(187.785156 0)"/>
     </g>
    </g>
    <g id="line2d_103">
     <path d="M 907.160156 116.954219 
L 918.160156 116.954219 
L 929.160156 116.954219 
" style="fill: none; stroke: #dd8452; stroke-width: 1.5; stroke-linecap: round"/>
    </g>
    <g id="text_28">
     <!-- CNN -->
     <g transform="translate(937.960156 120.804219) scale(0.11 -0.11)">
      <defs>
       <path id="DejaVuSans-43" d="M 4122 4306 
L 4122 3641 
Q 3803 3938 3442 4084 
Q 3081 4231 2675 4231 
Q 1875 4231 1450 3742 
Q 1025 3253 1025 2328 
Q 1025 1406 1450 917 
Q 1875 428 2675 428 
Q 3081 428 3442 575 
Q 3803 722 4122 1019 
L 4122 359 
Q 3791 134 3420 21 
Q 3050 -91 2638 -91 
Q 1578 -91 968 557 
Q 359 1206 359 2328 
Q 359 3453 968 4101 
Q 1578 4750 2638 4750 
Q 3056 4750 3426 4639 
Q 3797 4528 4122 4306 
z
" transform="scale(0.015625)"/>
       <path id="DejaVuSans-4e" d="M 628 4666 
L 1478 4666 
L 3547 763 
L 3547 4666 
L 4159 4666 
L 4159 0 
L 3309 0 
L 1241 3903 
L 1241 0 
L 628 0 
L 628 4666 
z
" transform="scale(0.015625)"/>
      </defs>
      <use xlink:href="#DejaVuSans-43"/>
      <use xlink:href="#DejaVuSans-4e" transform="translate(69.824219 0)"/>
      <use xlink:href="#DejaVuSans-4e" transform="translate(144.628906 0)"/>
     </g>
    </g>
   </g>
  </g>
 </g>
 <defs>
  <clipPath id="pb421f15e86">
   <rect x="135" y="86.4" width="837" height="554.4"/>
  </clipPath>
 </defs>
</svg>
